<svg xmlns="http://www.w3.org/2000/svg" xmlns:xlink="http://www.w3.org/1999/xlink" xmlns:lucid="lucid" width="1454.62" height="1201.67"><g transform="translate(-193.56521739130437 -71.16603604585902)" lucid:page-tab-id="0_0"><path d="M0 0h1760v1360H0z" fill="#fff"/><path d="M216.25 671.2c-1.48-2.95-1.48-7.76 0-10.72L374.8 343.52c1.48-2.96 5.37-5.36 8.68-5.36h315.84c3.3 0 7.2 2.4 8.68 5.36l158.55 316.96c1.48 2.96 1.48 7.77 0 10.73L708 988.17c-1.48 2.97-5.37 5.37-8.68 5.37H383.48c-3.3 0-7.2-2.4-8.68-5.37z" stroke="#5e5e5e" stroke-width="3" fill-opacity="0"/><use xlink:href="#a" transform="matrix(1,0,0,1,218.56521739130437,343.1560202825375) translate(1.01 330.6796875)"/><path d="M318.44 671.72c-1.5-2.96-1.5-7.76 0-10.72l103.43-205.37c1.5-2.96 5.4-5.36 8.7-5.36h205.67c3.3 0 7.2 2.4 8.7 5.36L748.37 661c1.5 2.96 1.5 7.76 0 10.72L644.94 877.08c-1.5 2.96-5.4 5.36-8.7 5.36H430.57c-3.3 0-7.2-2.4-8.7-5.36z" stroke="#5e5e5e" stroke-width="3" fill="#c1e4f7"/><use xlink:href="#b" transform="matrix(1,0,0,1,320.73882988524156,455.27473169803295) translate(1.01 216.0546875)"/><path d="M402.28 671.7c-1.5-2.95-1.5-7.74 0-10.7l61.5-121.1c1.5-2.95 5.4-5.34 8.7-5.34h121.85c3.3 0 7.2 2.4 8.7 5.35l61.5 121.1c1.5 2.96 1.5 7.75 0 10.7l-61.5 121.1c-1.5 2.96-5.4 5.36-8.7 5.36H472.48c-3.3 0-7.2-2.4-8.7-5.35z" stroke="#5e5e5e" stroke-width="3" fill="#ffeca9"/><use xlink:href="#c" transform="matrix(1,0,0,1,404.56422019010756,539.5584062163184) translate(3.01 130.67578125)"/><path d="M599.66 448.04c0 22.1-17.9 40-40 40s-40-17.9-40-40 17.9-40 40-40 40 17.9 40 40z" stroke="#5e5e5e" stroke-width="3" fill="#99d2f2"/><use xlink:href="#d" transform="matrix(1,0,0,1,524.6598163919697,413.037732908517) translate(9.929470486111114 41.8359375)"/><path d="M514.24 448.04c0 22.1-17.9 40-40 40s-40-17.9-40-40 17.9-40 40-40 40 17.9 40 40z" stroke="#5e5e5e" stroke-width="3" fill="#99d2f2"/><use xlink:href="#e" transform="matrix(1,0,0,1,439.2388298852416,413.037732908517) translate(1.0427517361111143 41.8359375)"/><path d="M728.24 534.04c0 22.1-17.9 40-40 40s-40-17.9-40-40 17.9-40 40-40 40 17.9 40 40z" stroke="#5e5e5e" stroke-width="3" fill="#99d2f2"/><use xlink:href="#f" transform="matrix(1,0,0,1,653.2388298852416,499.037732908517) translate(6.5874565972222285 41.8359375)"/><path d="M685.08 456.5c0 22.08-17.9 40-40 40s-40-17.92-40-40c0-22.1 17.9-40 40-40s40 17.9 40 40z" stroke="#5e5e5e" stroke-width="3" fill="#99d2f2"/><use xlink:href="#g" transform="matrix(1,0,0,1,610.0808028986978,421.4915631088568) translate(5.1171875 41.8359375)"/><path d="M715.26 814.9c0 22.08-17.9 40-40 40s-40-17.92-40-40c0-22.1 17.9-40 40-40s40 17.9 40 40z" stroke="#5e5e5e" stroke-width="3" fill="#99d2f2"/><use xlink:href="#h" transform="matrix(1,0,0,1,640.257096102041,779.8917395496518) translate(10.493706597222225 33.3660775)"/><use xlink:href="#i" transform="matrix(1,0,0,1,640.257096102041,779.8917395496518) translate(6.245234375000001 56.18508791666667)"/><path d="M618.57 876.23c0 22.1-17.9 40-40 40s-40-17.9-40-40 17.9-40 40-40 40 17.9 40 40z" stroke="#5e5e5e" stroke-width="3" fill="#99d2f2"/><use xlink:href="#j" transform="matrix(1,0,0,1,543.5721632185748,841.2250728829852) translate(6.956380208333336 41.8359375)"/><path d="M528.24 876.23c0 22.1-17.9 40-40 40s-40-17.9-40-40 17.9-40 40-40 40 17.9 40 40z" stroke="#5e5e5e" stroke-width="3" fill="#99d2f2"/><use xlink:href="#k" transform="matrix(1,0,0,1,453.2388298852416,841.2250728829852) translate(9.641927083333332 41.8359375)"/><path d="M570.93 665.65c0 20.52-16.8 37.15-37.52 37.15-20.72 0-37.52-16.63-37.52-37.15s16.8-37.15 37.53-37.15 37.53 16.63 37.53 37.15z" stroke="#fcc438" stroke-width="3" fill="#ffdf71"/><path d="M757.07 716.23c0 22.1-17.9 40-40 40s-40-17.9-40-40 17.9-40 40-40 40 17.9 40 40z" stroke="#5e5e5e" stroke-width="3" fill="#99d2f2"/><use xlink:href="#l" transform="matrix(1,0,0,1,682.0721632185748,681.225072882985) translate(14.773880208333336 30.8984375)"/><use xlink:href="#m" transform="matrix(1,0,0,1,682.0721632185748,681.225072882985) translate(12.072057291666665 53.717447916666664)"/><path d="M593.74 915.86l13.57 31.3" stroke="#5e5e5e" stroke-width="2" fill="none"/><path d="M594.67 915.5l-1.84.78-.42-.96 1.87-.75z" fill="#5e5e5e"/><path d="M613.4 961.16l-9.94-11.24 8.5-3.7z" stroke="#5e5e5e" stroke-width="2" fill="#5e5e5e"/><path d="M464.88 911.64l-15.78 35.48" stroke="#5e5e5e" stroke-width="2" fill="none"/><path d="M466.14 911.26l-.36.8-1.83-.8.48-1.07z" fill="#5e5e5e"/><path d="M442.9 961.07l1.56-14.92 8.47 3.77z" stroke="#5e5e5e" stroke-width="2" fill="#5e5e5e"/><path d="M616.25 1020.03v31.8" stroke="#5e5e5e" stroke-width="2" fill="none"/><path d="M616.2 1019.03l.94-.02h.1v1.05h-2v-1.1z" fill="#5e5e5e"/><path d="M616.25 1067.1l-4.64-14.27h9.28z" stroke="#5e5e5e" stroke-width="2" fill="#5e5e5e"/><path d="M517.9 702.2l-25.62 114.47" stroke="#5e5e5e" stroke-width="2" fill="none"/><path d="M518.1 701.22l.96.33-.2.9-1.95-.44.28-1.24z" fill="#5e5e5e"/><path d="M488.95 831.57l-1.4-14.94 9.03 2.03z" stroke="#5e5e5e" stroke-width="2" fill="#5e5e5e"/><path d="M543.24 704.08l30.5 112.78" stroke="#5e5e5e" stroke-width="2" fill="none"/><path d="M544.2 703.85l-1.92.52-.28-1.05.73-.12 1.2-.38z" fill="#5e5e5e"/><path d="M577.73 831.6l-8.2-12.56 8.95-2.42z" stroke="#5e5e5e" stroke-width="2" fill="#5e5e5e"/><path d="M470.95 309.83v-15.66" stroke="#5e5e5e" stroke-width="2" fill="none"/><path d="M471.95 310.92l-.94-.1-.95.03h-.1v-1.04h2z" fill="#5e5e5e"/><path d="M470.95 278.9l4.63 14.27h-9.27z" stroke="#5e5e5e" stroke-width="2" fill="#5e5e5e"/><path d="M559.66 309.83v-15.66" stroke="#5e5e5e" stroke-width="2" fill="none"/><path d="M560.66 310.92l-.94-.1-.96.03h-.1v-1.04h2z" fill="#5e5e5e"/><path d="M559.66 278.9l4.64 14.27h-9.28z" stroke="#5e5e5e" stroke-width="2" fill="#5e5e5e"/><path d="M375.88 1109.9c0-3.32 2.7-6 6-6H501.3c3.3 0 6 2.68 6 6v90c0 3.3-2.7 6-6 6H381.88c-3.3 0-6-2.7-6-6z" stroke="#5e5e5e" stroke-width="3" fill="#b2b2b2"/><use xlink:href="#n" transform="matrix(1,0,0,1,380.88375742147343,1108.891304347831) translate(38.34917534722222 52.2734375)"/><path d="M441.6 1020.03v63.86" stroke="#5e5e5e" stroke-width="2" fill="none"/><path d="M441.53 1019.03l.96-.02h.1v1.05h-2v-1.1z" fill="#5e5e5e"/><path d="M441.6 1099.16l-4.65-14.27h9.28z" stroke="#5e5e5e" stroke-width="2" fill="#5e5e5e"/><path d="M748.97 382.04c0 14.36-11.16 26-24.93 26-13.78 0-24.94-11.64-24.94-26s11.16-26 24.94-26c13.77 0 24.93 11.64 24.93 26z" stroke="#5e5e5e" stroke-width="3" fill="#ff8f80"/><path d="M741.6 360.26l60.84-75.98" stroke="#5e5e5e" stroke-width="2" fill="none"/><path d="M742.4 360.86l-.65.8-1.56-1.25.63-.8z" fill="#5e5e5e"/><path d="M811.98 272.36l-5.3 14.03-7.24-5.8z" stroke="#5e5e5e" stroke-width="2" fill="#5e5e5e"/><path d="M584.6 338.33c0 14.36-11.17 26-24.94 26-13.77 0-24.94-11.64-24.94-26s11.17-26 24.94-26c13.77 0 24.93 11.64 24.93 26zM495.88 338.33c0 14.36-11.16 26-24.93 26S446 352.7 446 338.33s11.18-26 24.95-26 24.93 11.64 24.93 26z" stroke="#5e5e5e" stroke-width="3" fill="#ff8f80"/><path d="M474.24 405.54V384" stroke="#5e5e5e" stroke-width="2" fill="none"/><path d="M475.24 406.6l-.98-.06-1.02.03v-1.06h2z" fill="#5e5e5e"/><path d="M474.24 368.75l4.63 14.26h-9.27z" stroke="#5e5e5e" stroke-width="2" fill="#5e5e5e"/><path d="M559.66 405.54v-21.2" stroke="#5e5e5e" stroke-width="2" fill="none"/><path d="M560.66 406.6l-.98-.06-1.02.03v-1.06h2z" fill="#5e5e5e"/><path d="M559.66 369.07l4.64 14.27h-9.28z" stroke="#5e5e5e" stroke-width="2" fill="#5e5e5e"/><path d="M676.6 428.08l14.72-14.72" stroke="#5e5e5e" stroke-width="2" fill="none"/><path d="M677.32 428.77l-.74.74-1.38-1.44.7-.7z" fill="#5e5e5e"/><path d="M702.12 402.56l-6.8 13.37-6.57-6.56z" stroke="#5e5e5e" stroke-width="2" fill="#5e5e5e"/><path d="M641.18 991.53c0 14.36-11.16 26-24.93 26s-24.94-11.64-24.94-26 11.18-26 24.95-26 24.93 11.64 24.93 26zM466.52 991.53c0 14.36-11.16 26-24.93 26-13.78 0-24.95-11.64-24.95-26s11.17-26 24.94-26c13.76 0 24.92 11.64 24.92 26z" stroke="#5e5e5e" stroke-width="3" fill="#ff8f80"/><path d="M560.8 694.5l73.17 76.96" stroke="#5e5e5e" stroke-width="2" fill="none"/><path d="M561.56 693.82l-1.45 1.38-.74-.8 1.38-1.16.13-.14z" fill="#5e5e5e"/><path d="M644.5 782.52l-13.2-7.14 6.72-6.4z" stroke="#5e5e5e" stroke-width="2" fill="#5e5e5e"/><path d="M571.42 677.85l86.8 29.56" stroke="#5e5e5e" stroke-width="2" fill="none"/><path d="M571.76 676.92l-.64 1.9-.98-.34.66-1.9z" fill="#5e5e5e"/><path d="M672.68 712.33l-15-.2 3-8.78z" stroke="#5e5e5e" stroke-width="2" fill="#5e5e5e"/><path d="M561.77 637.74l81.04-64.62" stroke="#5e5e5e" stroke-width="2" fill="none"/><path d="M562.42 638.5l-.7.57-.2-.23-1.28-1.15.93-.76z" fill="#5e5e5e"/><path d="M654.74 563.6l-8.26 12.52-5.78-7.25z" stroke="#5e5e5e" stroke-width="2" fill="#5e5e5e"/><path d="M548.2 628.86l67.4-120.13" stroke="#5e5e5e" stroke-width="2" fill="none"/><path d="M549.08 629.33l-.4.74-1.93-.67.6-1.05z" fill="#5e5e5e"/><path d="M623.08 495.42l-2.93 14.7-8.1-4.53z" stroke="#5e5e5e" stroke-width="2" fill="#5e5e5e"/><path d="M534.85 626.1l15.1-118.94" stroke="#5e5e5e" stroke-width="2" fill="none"/><path d="M535.85 626.2l-.12.95-2-.13.14-1.08z" fill="#5e5e5e"/><path d="M551.87 492.02l2.8 14.73-9.2-1.17z" stroke="#5e5e5e" stroke-width="2" fill="#5e5e5e"/><path d="M515.72 630.17l-36.25-122.9" stroke="#5e5e5e" stroke-width="2" fill="none"/><path d="M516.9 630.7l-1.82.86-.33-1.13 1.92-.56z" fill="#5e5e5e"/><path d="M475.15 492.64l8.5 12.37-8.9 2.64z" stroke="#5e5e5e" stroke-width="2" fill="#5e5e5e"/><path d="M792.05 875.88h392.62c3.3 0 6 2.7 6 6V980" stroke="#5e5e5e" stroke-width="2" fill="none"/><path d="M792.08 876.88h-1.83l1.6-2h.23z" fill="#5e5e5e"/><path d="M1190.67 995.26l-4.64-14.26h9.27z" stroke="#5e5e5e" stroke-width="2" fill="#5e5e5e"/><path d="M1204.02 650.93c0-3.32 2.7-6 6-6h412.16c3.3 0 6 2.68 6 6v182.2c0 3.3-2.7 6-6 6h-412.16c-3.3 0-6-2.7-6-6z" stroke="#5e5e5e" stroke-width="3" fill="#fff"/><use xlink:href="#o" transform="matrix(1,0,0,1,1209.0203844203375,649.9278753892988) translate(191.75564236111111 98.7109375)"/><g stroke="#fff" stroke-opacity="0" stroke-width="2"><path d="M1230.76 674.5l120-.1.1 120-120 .1-.1-120z" fill="#3f8624"/><path d="M1309.96 715.87c-.04-.26-.1-.4-.15-.62-1.42-4.36-10.3-6.62-19-6.6-8.77 0-17.6 2.26-19.02 6.63-.08.2-.12.36-.15.62v.62l.02 35.67c0 5.2 9.6 7.85 19.2 7.85 9.62 0 19.22-2.7 19.2-7.88V716.5c0-.27-.05-.42-.1-.63zm-19.2-4.05c9.13 0 14.6 2.4 15.74 4.05-1.15 1.6-6.64 4.02-15.74 4.03-9.14 0-14.6-2.36-15.8-4 1.2-1.65 6.7-4.07 15.83-4.08zm16 40.35c0 1.64-5.64 4.68-15.97 4.7-10.4 0-16.04-3.08-16.04-4.68l-.02-32.4c3.65 2.16 9.84 3.3 16.02 3.28 6.15 0 12.37-1.14 15.98-3.3z" fill="#fff"/><path d="M1271.78 715.26c-.06.2-.1.4-.14.62-.02-.22-.02-.4 0-.62zM1310 715.23v.63c-.04-.23-.1-.4-.15-.63zM1267.92 709.32l-2.28 2.28-11.66-11.66v8.93h-3.2v-12.8c0-.88.7-1.6 1.6-1.6h12.8v3.2h-8.94zM1330.78 696v12.8h-3.2v-8.92l-11.65 11.68-2.28-2.27 11.66-11.68h-8.92v-3.2h12.8c.88 0 1.6.72 1.6 1.6zM1256.3 771.27h8.93v3.2h-12.8c-.88 0-1.6-.72-1.6-1.6v-12.8h3.2v8.94l11.65-11.67 2.28 2.27zM1330.82 760.02v12.8c0 .88-.7 1.6-1.58 1.6h-12.8v-3.2h8.92l-11.67-11.65 2.26-2.28 11.66 11.65v-8.93z" fill="#fff"/></g><use xlink:href="#p" transform="matrix(0.9999997335611157,-0.0007299847242096256,0.0007299847242096256,0.9999997335611157,1200.854405014002,803.510845114029) translate(74.27734375 17.7734375)"/><g stroke="#fff" stroke-opacity="0" stroke-width="2"><path d="M1356.76 674.4l120-.1.1 120-120 .1-.1-120z" fill="#3f8624"/><path d="M1379.98 699.83l11.66 11.68 2.28-2.27-11.7-11.65h8.95v-3.2h-12.8c-.88 0-1.6.72-1.6 1.6l.02 12.8h3.2zM1455.18 694.33h-12.8v3.2h8.95l-11.68 11.66 2.28 2.27 11.64-11.7v8.95h3.22l-.02-12.8c0-.88-.72-1.6-1.6-1.6zM1391.68 757.24l-11.65 11.7v-8.95h-3.2v12.8c0 .86.72 1.58 1.6 1.58h12.8v-3.2h-8.95l11.68-11.67zM1453.62 768.88l-11.66-11.68-2.27 2.28 11.68 11.64h-8.94v3.2h12.8c.87 0 1.6-.72 1.6-1.6l-.02-12.8h-3.2zM1404.14 711.56c5.92-2.63 12.53-1.35 17 3.32 2 2.04 3.32 4.17 4.2 6.88.15.27.3.53.56.7.7.54 1.73.4 2.2-.3 1.04-1.42 2.55-2.23 4.27-2.23 2.48 0 5.44 1.87 5.8 7.2 0 .7.54 1.33 1.23 1.46 6.27 1.32 9.44 4.8 9.44 10.2 0 5.16-2.27 8.23-6.95 9.4l.75 3.1c6.06-1.47 9.36-5.92 9.36-12.5 0-6.53-3.8-11.2-10.74-13.05-.83-6.22-4.96-9.02-8.9-9.02-1.85-.04-3.43.5-4.94 1.6-1.04-2.26-2.28-4.03-4.07-5.8-5.37-5.6-13.3-7.16-20.45-4-6.6 3.12-10.66 9.3-10.8 16.63v.9c-5.57 1.77-9.14 6.84-8.93 12.66v.93c.34 5.5 3.8 10 9.1 11.73l1.02-3.02c-4-1.3-6.62-4.7-6.97-8.9v-.74c-.2-4.84 3.1-9.07 7.9-9.96.7-.18 1.18-.85 1.18-1.6-.06-.67-.13-1.2-.13-1.87.14-6.05 3.44-11.12 8.87-13.74z" fill="#fff"/><path d="M1442.32 742.86c.2-.52.1-1.04-.23-1.46-.3-.43-.75-.67-1.3-.67h-4.8c-.18-1.42-.73-2.6-1.8-3.6-.8-.83-1.77-1.23-2.93-1.2l-16.42.02c-.42-1.28-1.2-2.92-2.47-3.2h-6.67c-1.44 0-2.36 1.8-2.87 3.2h-1.9c-1.2-.02-2.23.34-3.07 1.16-1.2 1.23-1.85 2.72-1.85 4.45l.02 20c0 .9.7 1.62 1.58 1.62l36.8-.03c.74 0 1.3-.43 1.53-1.1zm-3.76 1.06l-2.54 7.76v-7.75zm-5.74 16.03l-33.6.02v-18.42c0-.8.22-1.5.78-2.07.18-.24.46-.33.74-.3h3.2c.84 0 1.53-.67 1.58-1.52.18-.6.42-1.13.7-1.7h5.15c.27.54.46 1.02.6 1.6 0 .88.74 1.6 1.63 1.6h17.72c.23 0 .47.1.6.3.6.58.9 1.28.9 2.07z" fill="#fff"/></g><use xlink:href="#q" transform="matrix(0.9999997335611157,-0.0007299847242096256,0.0007299847242096256,0.9999997335611157,1326.8543714427024,803.4188670387786) translate(75.82356770833333 17.7734375)"/><g stroke="#fff" stroke-opacity="0" stroke-width="2"><path d="M1482.76 674.3l120-.08.1 120-120 .08-.1-120z" fill="#3f8624"/><path d="M1581.1 738.3c-.47-2.5-3.3-4.25-5.3-5.53-.6-.4-2.3-1.04-2.45-1.6 0-.4 0-.8.15-1.2l1.6-11.46c.46-3.36.92-6.72 1.37-10.17.38-3.04-1.07-5.12-3.6-6.88-5.14-3.6-11.9-5.04-17.95-6-7.97-1.27-14.95-1.5-23-.7-7.28.48-13.34 1.93-20.08 4.82-3.38 1.6-7.9 4.1-7.28 8.42 1.54 12.96 3.47 25.94 5.24 38.92.77 5.92 1.62 11.85 2.4 17.78.3 2.48 1.68 4.4 3.98 5.36 4.9 2.64 11.04 3.44 16.64 3.92 7.74.7 14.34.47 22-.98 4.6-.8 13.2-2.25 13.95-8.02.92-7.13 1.9-14.26 2.82-21.4l.37-2.16c2.6.64 10.05 2 9.13-3.13zm-40.67-40.84c9.66 0 20.63 1.1 29.22 5.83 1.38.7 4.44 2.3 3.53 4.32-.92 1.92-3.84 2.88-5.6 3.6-2.6.97-4.98 1.6-7.74 2.17-11.96 2.4-22.54 2.65-34.65.74-5.46-.56-9.98-1.92-14.9-4.32-1.14-.72-3.06-1.84-2.52-3.44.38-.88 1-1.52 1.84-2 3.75-2.4 7.2-3.85 11.57-4.66 6.58-1.6 12.4-2.33 19.23-2.26zm25.2 67.44c-.3 1.84-3.37 2.8-4.83 3.3-3.22 1.1-6.06 1.76-9.43 2.16-7.44.97-13.88.97-21.4 0-4.67-.38-8.58-1.42-12.8-3.5-1.15-.48-1.84-1.52-1.9-2.72-1.63-12.74-3.4-25.4-5.18-38.05l-1.86-13.8c3.84 2.1 7.36 3.37 11.66 4.1 4.68.94 8.6 1.42 13.34 1.74 9.2.63 17.1.23 26.22-1.46 4.83-.73 8.8-2.1 13.1-4.42l-3.35 25.08c-8.58-2.8-15.63-5.6-23.7-9.52-.37-.16-.68-.32-.98-.48-.46-.32-.3-.16-.54-.64-.38-.96-.46-1.6-1.3-2.4-.77-.56-1.62-.8-2.54-.72-2 .08-3.52 1.85-3.37 3.85.16 1.92 1.92 3.44 3.92 3.28.52-.07.98-.23 1.6-.47.6-.16.6-.16 1.22.16 8.2 4 15.34 6.95 24 9.83 1.23.4 1.23 0 1.23 1.04-.07.8-.15 1.52-.3 2.32l-1 7.6zm-24.72-37.87c0 .48-.6.4-.75.16-.23-.33.76-.73.76-.17zm31.53 11.2l.46-3.54c1.6.95 4.28 2.3 5.05 4.08-1.6.64-4.06-.16-5.52-.56z" fill="#fff"/></g><use xlink:href="#r" transform="matrix(0.9999997335611157,-0.0007299847242096256,0.0007299847242096256,0.9999997335611157,1452.8543378714032,803.3268889635281) translate(79.46397569444444 17.7734375)"/><path d="M832.6 1006c0-3.3 2.7-6 6-6h689.34c3.32 0 6 2.7 6 6v202.9c0 3.3-2.68 6-6 6H838.6c-3.3 0-6-2.7-6-6z" stroke="#5e5e5e" stroke-width="3" fill="#fff"/><use xlink:href="#o" transform="matrix(1,0,0,1,837.6146442782474,1005) translate(330.2556423611111 107.4609375)"/><g stroke="#fff" stroke-opacity="0" stroke-width="2"><path d="M1384.97 1034.45l120 .17-.17 120-120-.17.17-120z" fill="#3b48cc"/><path d="M1430.6 1078.6c-14.15 0-24.82-4.5-24.8-10.44 0-5.94 10.68-10.4 24.84-10.38 14.16.02 24.84 4.5 24.83 10.45 0 5.94-10.7 10.4-24.86 10.38zm.04-18.38c-13.2-.02-22.4 4.17-22.42 7.96 0 3.8 9.18 8.02 22.4 8.03 13.2.03 22.4-4.16 22.4-7.95.02-3.8-9.17-8.02-22.38-8.03z" fill="#fff"/><path d="M1453.04 1068.23h2.43l-.03 17.74H1453l.04-17.74zM1430.52 1131.25c-14.16-.02-24.88-4.5-24.87-10.38l.07-52.7h2.44l-.08 52.7c0 3.8 9.18 8.03 22.4 8.05 13.2.02 22.4-4.2 22.4-7.98l.02-11.22h2.43l-.02 11.22c.1 5.87-10.63 10.33-24.78 10.3z" fill="#fff"/><path d="M1420.3 1096.1c-9.04-1.7-14.4-5.27-14.4-9.62h2.44c0 2.88 5 5.74 12.42 7.14zM1430.62 1115.1c-14.14 0-24.78-4.5-24.77-10.45h2.44c-.02 3.8 9.15 8.02 22.36 8.04 10.6 0 16.2-2.5 16.25-2.5l1.02 2.2c-.3.1-6.15 2.72-17.3 2.7zM1435.7 1103.32h-5.4c-1.57-.02-2.83-1.3-2.83-2.86V1095c0-1.57 1.24-2.87 2.8-2.9h.04l5.42.02c1.58 0 2.85 1.28 2.85 2.85v5.4c.04 1.57-1.18 2.9-2.75 2.95h-.1zm-5.4-8.66c-.22 0-.4.2-.4.4v5.4c0 .22.18.4.4.4h5.4c.23 0 .4-.17.4-.38l.02-5.46c0-.22-.18-.4-.4-.42zM1456.35 1103.35h-5.4c-1.58-.02-2.84-1.3-2.84-2.86l.02-5.46c-.02-1.58 1.23-2.88 2.8-2.9h5.44c1.57.02 2.83 1.3 2.83 2.86l-.02 5.4c.06 1.57-1.16 2.9-2.74 2.95h-.1zm-5.4-8.66c-.22 0-.4.18-.4.4v5.4c0 .2.17.4.4.4h5.4c.22 0 .4-.18.4-.4v-5.45c0-.22-.17-.4-.4-.42zM1476.97 1103.38h-5.4c-1.56 0-2.84-1.3-2.84-2.86v-5.45c0-1.58 1.25-2.88 2.8-2.9H1477c1.56 0 2.83 1.3 2.83 2.86v5.4c.05 1.57-1.17 2.9-2.75 2.95h-.1zm-5.38-8.67c-.24 0-.43.2-.43.43v5.4c0 .22.2.4.4.4h5.4c.23 0 .4-.17.43-.4v-5.45c0-.23-.18-.42-.42-.42z" fill="#fff"/><path d="M1481.58 1107.48l-14.54-.02c-1.33 0-2.43-1.12-2.42-2.48v-3.87h-1.28v3.86c0 1.36-1.1 2.44-2.44 2.44l-14.47-.02c-1.4 0-2.5-1.1-2.5-2.45l.02-3.8h-1.28v3.8c0 1.36-1.1 2.44-2.44 2.44l-14.53-.02c-1.34 0-2.43-1.1-2.43-2.45l.02-14.4c0-1.34 1.1-2.44 2.43-2.44l14.53.02c1.34.02 2.43 1.1 2.43 2.46l-.02 4.8h1.28v-4.8c0-1.35 1.1-2.45 2.5-2.45h14.47c1.34 0 2.43 1.1 2.43 2.47v4.8h1.27v-4.8c0-1.35 1.1-2.45 2.44-2.45l14.53.02c1.34-.04 2.43 1.03 2.5 2.38v.08l-.03 14.4c0 1.35-1.03 2.47-2.37 2.48h-.12zm-14.52-8.74v6.23l14.52.02.02-14.4-14.53-.03v7.22l-6.15-.02v-7.2l-14.46-.04v7.22h-6.2v-7.22l-14.54-.03-.02 14.4 14.54.03v-6.23h6.2v6.4l14.47.03.02-6.38z" fill="#fff"/></g><use xlink:href="#s" transform="matrix(0.9999989720886999,0.0014338136362417465,-0.0014338136362417465,0.9999989720886999,1354.7879797314051,1163.4050883734503) translate(68.15212673611111 17.7734375)"/><g stroke="#fff" stroke-opacity="0" stroke-width="2"><path d="M861.98 1033.7l120 .17-.17 120-120-.17.18-120z" fill="#3b48cc"/><path d="M939.45 1078.98c0-4.63-9.1-6.8-17.6-6.8-8.5-.02-17.6 2.12-17.6 6.75 0 .25.02.43.06.7l-.03 28.84c-.08 4.84 9.05 6.9 17.6 6.9 8.56 0 17.6-2.1 17.6-6.72l.05-29.67zm-17.57-3.6c9.32 0 14.4 2.55 14.4 3.6 0 1.03-5.06 3.57-14.4 3.56-9.4-.02-14.4-2.53-14.4-3.6 0-1.05 5.05-3.6 14.4-3.57zm14.35 33.27c0 1.04-5.05 3.53-14.4 3.52-9.35 0-14.4-2.52-14.4-3.56l.02-5.05c3.35 1.87 9.03 2.74 14.4 2.75 5.35 0 10.96-.85 14.4-2.66zm0-9.12c0 1.04-5.04 3.58-14.4 3.57-9.37 0-14.38-2.57-14.38-3.6h.04v-6.1c3.38 1.82 9.03 2.7 14.4 2.7 5.35 0 10.96-.85 14.4-2.6zm.03-10.2c0 1.05-5.05 3.63-14.4 3.62-9.4-.02-14.4-2.62-14.4-3.65h.04v-6.22c3.43 1.82 9 2.65 14.4 2.65s11.08-.84 14.4-2.7zM887.3 1130.55l10.54.02v3.2l-14.4-.02c-.88 0-1.6-.72-1.6-1.6l.02-14.4h3.2l-.02 10.5 12.03-11.96 2.23 2.25zM961.86 1117.86l-.02 14.4c0 .9-.7 1.6-1.6 1.6l-14.4-.03v-3.2l10.54.02-11.8-11.86 2.27-2.26 11.8 11.83.02-10.52zM961.95 1055.46l-.02 14.4h-3.2l.02-10.57-11.84 11.8-2.25-2.26 11.82-11.8h-10.52v-3.2l14.4.02c.9 0 1.6.7 1.6 1.6zM899.37 1068.96l-2.23 2.23-12-12.02-.02 10.54h-3.2l.03-14.4c0-.9.72-1.6 1.6-1.6h14.4v3.2H887.4zM897.33 1108.1c-9.77-3.54-15.36-8.94-15.35-14.77 0-5.84 5.6-11.2 15.4-14.72l1.08 3.02c-8.3 3-13.28 7.35-13.3 11.7 0 4.37 4.97 8.74 13.27 11.76zM945.53 1108.5l-1.02-3.04c8.9-2.98 14.2-7.47 14.2-12.02 0-4.56-5.3-9.06-14.16-12.1l1.03-3c10.4 3.5 16.34 9.04 16.33 15.1 0 6.07-5.98 11.55-16.37 15.07z" fill="#fff"/></g><use xlink:href="#t" transform="matrix(0.9999989720886999,0.0014338136362417465,-0.0014338136362417465,0.9999989720886999,831.7990212670526,1162.6552189024005) translate(73.97352430555556 17.7734375)"/><g stroke="#fff" stroke-opacity="0" stroke-width="2"><path d="M1123.48 1034.07l120 .18-.17 120-120-.18.18-120z" fill="#3b48cc"/><path d="M1187.46 1116.17h-2.1c-.87 0-1.58-.7-1.58-1.6l.05-35.62c0-.9.72-1.6 1.6-1.6l18.9.04c.47 0 .87.18 1.2.53l4.77 5.8-2.25 2.05-4.44-5.2-16.65-.03-.04 32.55h.56z" fill="#fff"/><path d="M1216.66 1122l-25.86-.04c-.87 0-1.6-.7-1.6-1.6l.06-35.6c0-.9.73-1.6 1.6-1.6l19.95.03c.44 0 .8.15 1.1.46l5.9 5.98c.3.3.45.66.45 1.1l-.05 29.7c-.03.86-.7 1.52-1.54 1.56zm-24.32-3.02l22.8.03.03-27.66-5-5-17.78-.03z" fill="#fff"/><path d="M1216.7 1093.86l-7.5-.02c-.88 0-1.6-.72-1.6-1.6v-7.52h3.08v5.97h5.97zM1202.37 1113.63h-1c-.82 0-1.53-.3-2.05-.93-.66-.98-.87-2.05-.66-3.22-.08-2.84-1.7-3.3-1.7-3.3-.8-.3-1.22-1.24-.9-2.06.16-.45.47-.77.92-.94.14 0 1.6-.6 1.6-3.4 0-1.68.8-3.54 2.67-3.6h1.05v3.08h-.52c-.02.17-.02.35 0 .52.12 1.87-.4 3.5-1.6 4.92 1.18 1.45 1.7 3.06 1.6 4.93v.28c-.03.25-.03.46 0 .7h.68zM1206.68 1113.63v-3.06h.6v-.53c-.12-1.85.4-3.48 1.6-4.9-1.18-1.45-1.7-3.08-1.6-4.94v-.28c.03-.24.03-.43 0-.68h-.68v-3.08h1c.83 0 1.53.32 2.06.93.65.97.87 2.04.65 3.2 0 2.7 1.6 3.2 1.6 3.3.7.22 1.14.87 1.1 1.6 0 .7-.45 1.28-1.13 1.45-.13 0-1.6.6-1.6 3.4 0 1.7-.8 3.57-2.66 3.62zM1174.98 1077.67c-12.78-.02-26.4-3.98-26.4-11.24s13.6-11.18 26.44-11.16c12.83.02 26.4 3.98 26.4 11.24s-13.65 11.2-26.44 11.17zm.03-19.4c-13.72-.02-23.35 4.27-23.35 8.14 0 3.86 9.6 8.16 23.34 8.18 13.72.02 23.35-4.25 23.35-8.1 0-3.88-9.6-8.2-23.34-8.2z" fill="#fff"/><path d="M1198.33 1066.47h3.07v9.7h-3.1l.03-9.7zM1174.9 1133.1c-12.78-.03-26.4-3.98-26.4-11.24l.08-55.46h3.07l-.08 55.4c0 3.86 9.6 8.2 23.34 8.22 13.75.02 23.37-4.3 23.37-8.16h3.07c0 7.34-13.65 11.25-26.44 11.23z" fill="#fff"/><path d="M1175 1097.04c-15.02-.02-26.34-4.84-26.33-11.23h3.1c-.02 3.86 9.6 8.2 23.23 8.2 2.45 0 4.5-.1 6.92-.38l.33 3.05c-2.55.28-4.7.4-7.26.37zM1175 1116.1c-15.06-.04-26.37-4.86-26.36-11.25h3.1c0 3.85 9.58 8.17 23.25 8.2 2.4 0 4.46-.12 6.88-.38l.33 3.1c-2.5.24-4.7.33-7.2.32z" fill="#fff"/></g><use xlink:href="#u" transform="matrix(0.9999989720886999,0.0014338136362417465,-0.0014338136362417465,0.9999989720886999,1093.293500499229,1163.0301536379257) translate(42.54991319444444 17.7734375)"/><g stroke="#fff" stroke-opacity="0" stroke-width="2"><path d="M992.73 1033.9l120 .16-.17 120-120-.17.17-120z" fill="#3b48cc"/><path d="M1073.05 1098.78l-10.63 10.54c2.02-.56 3.65-1.2 5.5-2.23 1.1.63 1.7 1.67 1.9 2.87 0 2.96-6.2 6.14-15.4 7.4-3.06.4-5.56.56-8.6.56h-1.58c-12.96-.26-22.42-4.35-22.4-8.03.15-1.2.8-2.16 1.9-2.88 5 2.8 13.16 4.5 22.08 4.5h.17l.92-3.18h-1.1c-8.8-.02-16.97-1.8-21.26-4.5-1.74-1.13-2.72-2.4-2.72-3.45v-7.45c4.9 3.77 14.64 5.7 24 5.7 1.25 0 2.5.02 3.76-.06l.93-3.2c-1.64.07-3.1.15-4.68.14-13.72 0-24-4.27-24-8.02.17-1.28.83-2.24 1.92-2.88 4.4 2.5 11.2 4 18.87 4.43l.12-3.2c-7.57-.4-14.42-2.02-18.17-4.5-1.75-1.05-2.68-2.33-2.73-3.45v-7.35c4.9 3.76 14.64 5.7 24 5.7h.33l1.75-3.18-2.07-.02c-13.72-.02-24-4.2-24-8.03.02-3.75 10.3-7.97 24.02-7.95 4.84 0 8.98.5 13.7 1.6l8.83.03c-4.84-2.97-13.1-4.82-22.52-4.83-13.16-.02-27.2 3.88-27.22 11.15l-.02 12.87c.1 1.92.92 3.52 2.44 4.72-1.52 1.28-2.34 2.87-2.45 4.8l-.02 12.78c.1 2 .92 3.6 2.44 4.88-1.52 1.2-2.34 2.8-2.46 4.8v13.1c.42 7.04 14.18 10.82 27.2 10.83 13 .02 26.77-3.7 27.22-10.83V1109.88c-.04-1.9-.9-3.6-2.43-4.8 1.52-1.18 2.34-2.86 2.45-4.78zm-3.24 23.98c0 3.75-10.3 7.98-24 7.96-13.72-.02-24-4.2-24-8.03l.02-7.37c4.9 3.7 14.63 5.7 24 5.7 9.35.03 19.1-1.96 24-5.63z" fill="#fff"/><path d="M1028.67 1077.97c0 1.1-.9 2-2 2s-2-.9-2-2 .9-2 2-2 2 .9 2 2zM1028.64 1100.37c0 1.1-.9 2-2 2s-2-.9-2-2 .9-2 2-2 2 .9 2 2zM1028.6 1122.77c0 1.1-.9 2-2 2s-2-.9-2-2 .9-2 2-2 2 .9 2 2zM1049.8 1116.34c-.28 0-.52-.06-.8-.22-.64-.38-.92-1.15-.72-1.86l9.02-29.93h-9.06c-.88.04-1.6-.67-1.6-1.6 0-.27.04-.54.2-.76l9.6-19.2c.3-.55.82-.87 1.46-.87l20.8.03c.9-.06 1.6.65 1.65 1.52.04.22 0 .4-.04.6l-4.14 12.25h8.98c.88.07 1.6.78 1.6 1.65 0 .43-.16.76-.44 1.1l-35.26 36.74c-.32.37-.72.54-1.24.54zm1.05-35.18h8.62c.52.02.97.23 1.3.62.27.43.38.92.22 1.4l-7.74 25.6 28.07-29.2-7.46-.02c-.88 0-1.64-.65-1.68-1.52 0-.22 0-.44.07-.6l4.1-12.3-17.6-.03z" fill="#fff"/></g><use xlink:href="#v" transform="matrix(0.9999989720886999,0.0014338136362417465,-0.0014338136362417465,0.9999989720886999,962.5462608831408,1162.842686270163) translate(49.87413194444444 17.7734375)"/><g stroke="#fff" stroke-opacity="0"><path d="M1254.23 1034.26l120 .17-.18 120-120-.17.18-120z" stroke-width="2" fill="#3b48cc"/><path d="M1304.85 1077.13c-14.9-.02-26.58-4.82-26.57-11.12 0-6.3 11.7-11.06 26.6-11.04 14.9.02 26.6 4.83 26.58 11.12 0 6.3-11.72 11.07-26.6 11.05zm.03-19.78c-14.25-.02-24.2 4.56-24.2 8.66-.02 4.1 9.92 8.72 24.18 8.74 14.25.02 24.2-4.56 24.2-8.66 0-4.1-9.93-8.7-24.18-8.73z" stroke-width="2" fill="#fff"/><path d="M1329.06 1066.08h2.4l-.03 18.93h-2.4l.03-18.92zM1304.77 1133.7c-14.9 0-26.58-4.83-26.57-11.13l.08-56.56h2.4l-.1 56.58c0 4.13 9.94 8.74 24.2 8.76 14.25.02 24.2-4.57 24.2-8.7v-5.4h2.4v5.4c0 6.24-11.72 11.1-26.6 11.07z" stroke-width="2" fill="#fff"/><path d="M1304.88 1096.93c-14.87-.03-26.5-4.84-26.5-11.15h2.4c0 4.12 9.88 8.73 24.1 8.75 2.5 0 4.6-.12 7.08-.4l.27 2.4c-2.57.28-4.74.4-7.35.4zM1304.88 1116.37c-14.9-.03-26.54-4.92-26.53-11.15h2.4c0 4.12 9.88 8.73 24.13 8.75 2.47 0 4.57-.12 7.04-.4l.27 2.37c-2.58.3-4.75.42-7.32.43zM1348.16 1116.17l-32.63-.05c-.64 0-1.18-.52-1.18-1.17v-.03l.04-31.26h2.4l-.05 30.06 31.4.05z" stroke-width="2" fill="#fff"/><path d="M1318.2 1107.58l3.5-3.5 1.7 1.7-3.5 3.5-1.7-1.7z" stroke-width="1.41" fill="#fff"/><path d="M1326.9 1102.3l-1.7-1.7 3.27-3.27h8.15l10.74-10.68 1.68 1.7-11.42 11.4-8.15-.02-2.58 2.57z" stroke-width="2" fill="#fff"/><path d="M1329.56 1093.82l-3.98-3.98h-7.08v-2.42l8.07.02 3 3 3-3h3.9l4.43 4.45-1.7 1.68-3.72-3.73h-1.93l-4 3.97z" stroke-width="2" fill="#fff"/><path d="M1342.1 1096.5l1.7-1.7 5.23 5.25-1.7 1.7-5.23-5.25z" stroke-width="1.41" fill="#fff"/><path d="M1345.84 1111.9l-1.7-1.7 2.33-2.32-2.3-2.32 1.68-1.7 4 4.03-4 4z" stroke-width="2" fill="#fff"/><path d="M1330.12 1110.72l-11.9-11.93 1.7-1.7 10.2 10.23 4.66-4.65 3.98 4h9.4v2.4h-10.4l-2.98-3-4.66 4.64zM1350.03 1102.78h-5.68v-2.4h3.28v-3.28h2.4v5.68zM1350.05 1090.9h-2.4v-3.27h-3.28v-2.4h5.7l-.02 5.68z" stroke-width="2" fill="#fff"/></g><use xlink:href="#w" transform="matrix(0.9999989720886999,0.0014338136362417465,-0.0014338136362417465,0.9999989720886999,1224.0407401153168,1163.2176210056878) translate(48.230251736111114 17.7734375)"/><path d="M853.08 751.4h330.94" stroke="#5e5e5e" stroke-width="2" fill="none"/><path d="M853.1 752.4h-1.12l.2-2h.92z" fill="#5e5e5e"/><path d="M1199.28 751.4l-14.26 4.64v-9.27z" stroke="#5e5e5e" stroke-width="2" fill="#5e5e5e"/><path d="M1073.8 438.33c0-3.3 2.7-6 6-6h164c3.32 0 6 2.7 6 6v172.3c0 3.3-2.68 6-6 6h-164c-3.3 0-6-2.7-6-6z" stroke="#5e5e5e" stroke-width="3" fill="#fff"/><use xlink:href="#o" transform="matrix(1,0,0,1,1078.8040120885316,437.33333333337214) translate(67.25564236111111 94.3359375)"/><path d="M1103.47 450.7h120v120h-120v-120z" stroke="#fff" stroke-opacity="0" stroke-width="2" fill="#3b48cc"/><path d="M1163.5 493.9c-10.74 0-21.63 2.8-21.63 8.17v36.43c0 5.4 10.84 8.2 21.6 8.2 10.7 0 21.6-2.8 21.6-8.2v-36.43c0-5.38-10.84-8.18-21.56-8.18zm0 49.57c-11.9 0-18.43-3.17-18.43-4.97v-7.65c4.02 2.43 11.2 3.7 18.4 3.7 7.17 0 14.4-1.27 18.36-3.7v7.65c.04 1.8-6.44 4.97-18.32 4.97zm0-12.15c-11.9 0-18.4-3.22-18.4-4.96v-7.66c4.03 2.38 11.2 3.65 18.4 3.65 7.2 0 14.4-1.27 18.37-3.65v7.66c0 1.7-6.48 4.96-18.36 4.96zm0-12.14c-11.9 0-18.4-3.22-18.4-4.96v-7.7c4.03 2.42 11.2 3.68 18.4 3.68 7.2 0 14.4-1.26 18.37-3.7v7.72c0 1.7-6.48 4.96-18.36 4.96zm0-12.2c-11.9 0-18.43-3.27-18.43-4.9 0-1.7 6.4-4.97 18.4-4.97 11.97 0 18.4 3.28 18.4 4.97 0 1.64-6.48 4.9-18.36 4.9z" stroke="#fff" stroke-opacity="0" stroke-width="2" fill="#fff"/><path d="M1202.64 481.4c.9 0 1.63-.7 1.63-1.6v-3.5c0-.9-.73-1.6-1.63-1.6h-78.34c-.9 0-1.63.7-1.63 1.6v3.5c0 .85.74 1.56 1.63 1.56 1.96.18 3.35 1.93 3.2 3.9-.18 1.7-1.48 3-3.2 3.18-.9 0-1.63.72-1.63 1.6v27.83c0 .9.74 1.62 1.63 1.62h14.36v-3.2h-6.36v-1.6h6.36v-3.23h-8c-.9 0-1.62.72-1.62 1.6v3.24h-3.2v-24.86c2.3-.67 3.85-2.28 4.58-4.52 1.06-3.63-.98-7.44-4.57-8.5v-.55h75.24v.54c-2.2.72-3.77 2.25-4.42 4.44-1.14 3.6.82 7.44 4.4 8.6v24.87h-1.62v-3.22c0-.9-.74-1.6-1.55-1.6h-9.62v3.2h8v1.63h-8v3.2h14.36c.9 0 1.63-.73 1.63-1.63v-27.82c0-.9-.73-1.6-1.63-1.6-1.88-.23-3.35-1.98-3.1-3.95.24-1.66 1.47-2.9 3.1-3.1z" stroke="#fff" stroke-opacity="0" stroke-width="2" fill="#fff"/><path d="M1162.67 490.7v-8c0-.9-.72-1.6-1.6-1.6h-11.2c-.88 0-1.6.7-1.6 1.6v9.6h3.2v-8h8v6.4zM1178.67 492.3v-9.6c0-.9-.72-1.6-1.6-1.6h-11.2c-.88 0-1.6.7-1.6 1.6v8h3.2v-6.4h8v8zM1188.28 505.08v3.2h4.8c.87 0 1.6-.7 1.6-1.6v-24c0-.9-.73-1.6-1.6-1.6h-11.2c-.9 0-1.6.7-1.6 1.6v11.22h3.2v-9.6h8v20.78zM1135.47 484.3h8v9.6h3.2v-11.2c0-.9-.72-1.6-1.6-1.6h-11.2c-.88 0-1.6.7-1.6 1.6v23.98c0 .9.72 1.6 1.6 1.6h4.8v-3.2h-3.2z" stroke="#fff" stroke-opacity="0" stroke-width="2" fill="#fff"/><use xlink:href="#x" transform="matrix(1,0,0,1,1073.4706787551984,579.6875353935665) translate(48.72938368055556 17.7734375)"/><path d="M764.04 620.04c0 22.1-17.9 40-40 40s-40-17.9-40-40 17.9-40 40-40 40 17.9 40 40z" stroke="#5e5e5e" stroke-width="3" fill="#99d2f2"/><use xlink:href="#y" transform="matrix(1,0,0,1,689.035852558874,585.037732908517) translate(10.602213541666671 41.8359375)"/><path d="M852.85 576.5l201.2-33.88" stroke="#5e5e5e" stroke-width="2" fill="none"/><path d="M853.04 577.47l-1.05.18-.27-2 .98-.15z" fill="#5e5e5e"/><path d="M1069.1 540.08l-13.3 6.94-1.52-9.14z" stroke="#5e5e5e" stroke-width="2" fill="#5e5e5e"/><path d="M882.48 310.04c0-3.32 2.7-6 6-6h164c3.32 0 6 2.68 6 6v172c0 3.3-2.68 6-6 6h-164c-3.3 0-6-2.7-6-6z" stroke="#5e5e5e" stroke-width="3" fill="#fff"/><use xlink:href="#o" transform="matrix(1,0,0,1,887.4845100451798,309.037732908517) translate(67.25564236111111 93.8984375)"/><path d="M910.48 318.97h120v120h-120v-120z" stroke="#fff" stroke-opacity="0" stroke-width="2" fill="#693cc5"/><path d="M946.48 362.57h-14.4c-.87 0-1.6.7-1.6 1.58v51.24c0 .86.73 1.57 1.6 1.57h14.4c.88 0 1.6-.7 1.6-1.58v-51.25c0-.87-.72-1.58-1.6-1.58zm-1.6 51.2h-11.2v-48h11.2zM968.88 406.43v8.93c0 .88-.72 1.6-1.6 1.6h-14.4c-.87 0-1.6-.72-1.6-1.6v-27.6c.55 3.13 1.54 5.7 3.2 8.4v17.6h11.2v-8.38c1.1.46 2.06.78 3.2 1.05zM968.88 354.58v5.66c-1.16.32-2.1.65-3.2 1.12v-5.2h-11.2v14.4c-1.66 2.7-2.65 5.27-3.2 8.4v-24.38c0-.88.73-1.6 1.6-1.6h14.4c.88 0 1.6.72 1.6 1.6zM986.48 407.75v6h-11.2v-6.38c-1.12 0-2.07-.08-3.2-.23v8.22c0 .92.73 1.6 1.6 1.6h14.4c.88 0 1.6-.68 1.6-1.6v-4.46zm1.6-67.58h-14.4c-.87 0-1.6.7-1.6 1.6v17.83c1.13-.15 2.08-.23 3.2-.23V343.4h11.2v18.73c1.18.7 2.15 1.3 3.2 2.08V341.8c0-.92-.72-1.6-1.6-1.6zM1008.88 348.17h-14.4c-.87 0-1.6.72-1.6 1.6v17.36c1.3 1.4 2.26 2.72 3.2 4.4v-20.14h11.2v49.14l3.2 3.23v-54c0-.88-.72-1.6-1.6-1.6z" stroke="#fff" stroke-opacity="0" stroke-width="2" fill="#fff"/><path d="M1008.53 406.43L994.13 392c2.8-6.08 2.63-12.44-.5-18.4-5.4-10.13-17.94-14-28.1-8.64-10.14 5.36-14.06 17.9-8.68 28.1 5.38 10.16 17.94 14.03 28.14 8.67l14.12 14.15c2.63 2.6 6.83 2.6 9.4 0 2.65-2.6 2.65-6.8 0-9.4zm-50.84-23.1c0-9.7 7.84-17.6 17.6-17.6 9.7 0 17.6 7.9 17.6 17.6 0 9.72-7.9 17.62-17.6 17.62-9.76 0-17.6-7.9-17.6-17.63zm48.6 30.23c-1.35 1.33-3.54 1.33-4.94 0l-13.62-13.66c1.96-1.43 3.42-2.98 4.82-5.03l13.73 13.83c1.34 1.32 1.34 3.53 0 4.86z" stroke="#fff" stroke-opacity="0" stroke-width="2" fill="#fff"/><path d="M968.2 390.97c-4.64-3.32-5.72-9.8-2.4-14.4 3.33-4.66 9.78-5.73 14.42-2.4l.28.2-1.9 2.56c-3.17-2.34-7.64-1.67-10 1.5-2.33 3.17-1.67 7.63 1.5 9.97z" stroke="#fff" stroke-opacity="0" stroke-width="2" fill="#fff"/><use xlink:href="#z" transform="matrix(1,0,0,1,880.4845100451798,447.9684927044815) translate(42.132161458333336 17.7734375)"/><path d="M800.2 477.8l63.82-27.75" stroke="#5e5e5e" stroke-width="2" fill="none"/><path d="M800.62 478.7l-.84.38-1-1.75 1.05-.45z" fill="#5e5e5e"/><path d="M878.02 443.96l-11.24 9.94-3.7-8.5z" stroke="#5e5e5e" stroke-width="2" fill="#5e5e5e"/><path d="M571.1 652.43l93.67-27.23" stroke="#5e5e5e" stroke-width="2" fill="none"/><path d="M571.4 653.38l-.97.28-.6-1.9 1-.3z" fill="#5e5e5e"/><path d="M679.43 620.94l-12.4 8.43-2.6-8.9z" stroke="#5e5e5e" stroke-width="2" fill="#5e5e5e"/><path d="M800.94 491.04c0 14.36-11.16 26-24.93 26-13.76 0-24.93-11.64-24.93-26s11.17-26 24.94-26c13.78 0 24.94 11.64 24.94 26zM850.8 581.03c0 14.36-11.15 26-24.92 26-13.77 0-24.94-11.64-24.94-26s11.17-26 24.94-26c13.77 0 24.93 11.64 24.93 26zM785.04 879.23c0 14.35-11.16 26-24.93 26s-24.93-11.65-24.93-26c0-14.36 11.16-26 24.94-26 13.78 0 24.94 11.64 24.94 26z" stroke="#5e5e5e" stroke-width="3" fill="#ff8f80"/><path d="M788.87 872.08c0 14.36-11.16 26-24.93 26s-24.94-11.64-24.94-26 11.17-26 24.94-26c13.77 0 24.93 11.64 24.93 26z" stroke="#5e5e5e" stroke-width="3" fill="#ff8f80"/><path d="M791.94 865.75c0 14.35-11.16 26-24.94 26-13.77 0-24.93-11.65-24.93-26 0-14.36 11.16-26 24.93-26 13.78 0 24.94 11.64 24.94 26z" stroke="#5e5e5e" stroke-width="3" fill="#ff8f80"/><path d="M796.04 858c0 14.37-11.16 26-24.93 26s-24.93-11.63-24.93-26c0-14.35 11.16-26 24.94-26 13.78 0 24.94 11.65 24.94 26z" stroke="#5e5e5e" stroke-width="3" fill="#ff8f80"/><path d="M800.8 849c0 14.37-11.16 26-24.93 26s-24.93-11.63-24.93-26c0-14.35 11.16-26 24.93-26s24.94 11.65 24.94 26z" stroke="#5e5e5e" stroke-width="3" fill="#ff8f80"/><path d="M710.17 839.07l18.28 10.04" stroke="#5e5e5e" stroke-width="2" fill="none"/><path d="M710.67 838.2l-.96 1.76-.98-.55.22-.25.9-1.4z" fill="#5e5e5e"/><path d="M741.83 856.45l-14.73-2.8 4.46-8.13z" stroke="#5e5e5e" stroke-width="2" fill="#5e5e5e"/><path d="M757.45 729.28l25.5 6.5" stroke="#5e5e5e" stroke-width="2" fill="none"/><path d="M757.72 728.3l-.5 1.95-1.05-.27.62-1.9z" fill="#5e5e5e"/><path d="M797.73 739.55l-14.97.96 2.3-8.97z" stroke="#5e5e5e" stroke-width="2" fill="#5e5e5e"/><path d="M763.46 604.35l21.34-5.6" stroke="#5e5e5e" stroke-width="2" fill="none"/><path d="M763.74 605.32l-.87.22-.76-1.87 1.13-.3z" fill="#5e5e5e"/><path d="M799.57 594.85l-12.62 8.12-2.36-8.97z" stroke="#5e5e5e" stroke-width="2" fill="#5e5e5e"/><path d="M724.07 511.18l9.9-4.58" stroke="#5e5e5e" stroke-width="2" fill="none"/><path d="M724.5 512.08l-.85.4-.46-.84-.64-.86 1.1-.5z" fill="#5e5e5e"/><path d="M747.8 500.2l-11 10.2-3.88-8.42z" stroke="#5e5e5e" stroke-width="2" fill="#5e5e5e"/><path d="M532.25 1077.83c0-3.3 2.68-6 6-6h156c3.3 0 6 2.7 6 6v169c0 3.32-2.7 6-6 6h-156c-3.32 0-6-2.68-6-6z" stroke="#5e5e5e" stroke-width="3" fill="#fff"/><path d="M556.25 1094.9h120v120h-120v-120z" stroke="#fff" stroke-opacity="0" fill="#d6242d"/><path d="M651.77 1125.3h-71.04c-2.48 0-4.48 2-4.48 4.5v50.2c0 2.48 2 4.5 4.48 4.5h71.04c2.48 0 4.48-2.02 4.48-4.5v-50.2c0-2.5-2-4.5-4.48-4.5zm1.28 54.7c0 .7-.56 1.3-1.28 1.3h-71.04c-.72 0-1.28-.6-1.28-1.3v-50.2c0-.72.56-1.3 1.28-1.3h71.04c.72 0 1.28.58 1.28 1.3z" stroke="#fff" stroke-opacity="0" fill="#fff"/><path d="M621.05 1146.1h16v3.2h-16v-3.2zM643.45 1146.1h3.2v3.2h-3.2v-3.2zM614.17 1151.4c-.3-.35-.68-.53-1.12-.53h-22.4v-8c.03-1.85.86-3.45 2.4-4.53 1.7-1.3 3.48-1.85 5.6-1.85 2.17-.06 4.06.63 5.76 2.02 1.4 1.08 2.18 2.6 2.25 4.36v8h3.2v-8.65c-.07-2.63-1.25-4.84-3.4-6.4-2.33-1.76-4.86-2.58-7.8-2.54-6.18 0-11.2 4-11.2 8.93v8.64h-3.2c-.9 0-1.6.74-1.6 1.6v22.42c0 .86.7 1.6 1.6 1.6h28.8c.9 0 1.6-.74 1.6-1.6v-22.43c0-.43-.16-.78-.45-1.08zm-2.72 7.5h-4.8v3.2h4.8v3.2h-4.8v3.2h4.8v4.8h-25.6v-19.2h25.6z" stroke="#fff" stroke-opacity="0" fill="#fff"/><path d="M598.65 1156.6c-2 .02-3.7 1.2-4.4 3.08-.88 2.43.37 5.12 2.8 6v4.4h3.2v-4.4c1.87-.67 3.06-2.37 3.07-4.37 0-2.58-2.1-4.68-4.67-4.7zm0 6.72c-1.12 0-2.03-.9-2.03-2.02 0-1.14.9-2.04 2.03-2.04 1.12 0 2.03.9 2.03 2.04 0 1.12-.9 2.02-2.03 2.02zM621.05 1154.1h11.2v3.2h-11.2v-3.2zM638.65 1154.1h8v3.2h-8v-3.2zM621.05 1162.1h20.8v3.2h-20.8v-3.2z" stroke="#fff" stroke-opacity="0" fill="#fff"/><use xlink:href="#A" transform="matrix(1,0,0,1,526.2467729137088,1223.891304347831) translate(75.52517361111111 17.7734375)"/><path d="M358.46 97.17c0-3.32 2.7-6 6-6h149.2c3.3 0 6 2.68 6 6v171c0 3.3-2.7 6-6 6h-149.2c-3.3 0-6-2.7-6-6z" stroke="#5e5e5e" stroke-width="3" fill="#fff"/><path d="M381.6 115.17h120v120h-120v-120z" stroke="#fff" stroke-opacity="0" stroke-width="2" fill="#cc2264"/><path d="M468.92 196.64V197.5c-.04-.3-.04-.56 0-.86zM447.9 164.77l-.15.3c.07-.1.1-.2.14-.32z" stroke="#fff" stroke-opacity="0" stroke-width="2" fill="#fff"/><path d="M434.05 159.2c-1.43 0-14-.1-14 4.66 0 .3.04.6.16.88.03.1.1.22.15.33l8.7 19.2v9.93c0 1.02.43 1.6 1.3 1.6h.42c2.13-.54 3.8-1.42 5.5-2.8l1.05-.78c.48-.3.73-.77.76-1.35v-6.55l9.67-19.2c.08-.1.1-.2.14-.3.1-.3.15-.6.15-.9 0-4.82-12.58-4.7-14-4.7zm0 2.94c5.63 0 9.27 1.03 10.47 1.72-1.2.7-4.8 1.68-10.47 1.68-5.72 0-9.28-.98-10.48-1.68 1.23-.7 4.82-1.72 10.48-1.72zm1.14 20.82V190.23l-.62.4c-.9.52-1.7.88-2.64 1.36v-8.05c0-.22-.02-.4-.1-.62l-6.82-15.6c3.1.7 5.83 1 9.03 1 3.1 0 5.7-.26 8.77-.92z" stroke="#fff" stroke-opacity="0" stroke-width="2" fill="#fff"/><path d="M463.18 203.44c-6.53 4.76-13.45 6.98-21.52 6.9-17.38 0-32.24-11.27-35.77-28 3.32-.14 6-2.37 6.72-5.6h8.13v-2.98h-8.13c-.67-3.3-3.33-5.6-6.66-5.83 4.86-19.7 24.78-31.75 44.5-26.92 4.6 1.16 8.26 2.85 12.12 5.53l1.8-2.53c-4.6-3.22-9.06-5.14-14.52-6.3-21.6-4.52-42.84 9.37-47.37 31-1.6.7-2.74 1.84-3.47 3.45-1.67 3.6-.14 7.9 3.46 9.5 3.92 18.8 19.98 31.92 39.16 31.92 8.73 0 16.2-2.38 23.32-7.52zm-61.62-28.3c0-2 1.53-3.76 3.53-4h.52c2.2 0 4 1.78 4 4 0 2.22-1.8 4-4 4-2.2.06-4-1.78-4-3.92v-.08z" stroke="#fff" stroke-opacity="0" stroke-width="2" fill="#fff"/><path d="M477.6 182.37c3.44 0 6.32-2.3 7.04-5.74.84-3.85-1.66-7.7-5.57-8.52-3.87-.82-7.7 1.67-8.53 5.57h-8.3V153.9h4.32c.38 3.03 2.5 5.34 5.5 6.05 3.87.94 7.73-1.48 8.64-5.4.9-3.83-1.5-7.68-5.38-8.62-3.87-.9-7.74 1.53-8.65 5.38l-5.87-.05c-.15-.06-.27-.06-.38-.06-.76.05-1.3.7-1.2 1.4v21h-12.33v2.97h12.3v20.94c0 .9.7 1.6 1.6 1.6h5c.6 2.9 2.73 5.1 5.65 5.7 3.9.75 7.7-1.8 8.5-5.7.75-3.9-1.75-7.68-5.66-8.45-3.9-.77-7.7 1.7-8.5 5.62h-3.48l-.08-19.7h8.3c.68 3.43 3.57 5.8 7.05 5.8zm0-11.2c2.2 0 3.97 1.8 3.97 3.98 0 2.25-1.78 4.02-3.98 4.02s-4.03-1.77-4.03-4.02c0-2.2 1.82-3.97 4.02-3.97zm-4.03-22.3c2.2.07 4 1.85 4 4.04 0 2.2-1.8 3.97-4 3.97s-3.98-1.78-3.98-3.96v-.05c0-2.2 1.78-3.97 3.97-3.97h.04zm-.8 44.68c2.25 0 4.03 1.77 4.03 4.02.03 2.2-1.78 3.96-3.98 4.02-2.05 0-3.72-1.5-3.98-3.56v-.47c0-.3.03-.53.1-.83.4-1.83 1.94-3.14 3.84-3.2z" stroke="#fff" stroke-opacity="0" stroke-width="2" fill="#fff"/><use xlink:href="#B" transform="matrix(1,0,0,1,351.58993083477594,244.16603604585902) translate(74.81987847222223 17.7734375)"/><path d="M523.88 97.17c0-3.32 2.7-6 6-6h149.2c3.3 0 6 2.68 6 6v171c0 3.3-2.7 6-6 6h-149.2c-3.3 0-6-2.7-6-6z" stroke="#5e5e5e" stroke-width="3" fill="#fff"/><path d="M538.57 115.17h120v120h-120v-120z" stroke="#fff" stroke-opacity="0" stroke-width="2" fill="#cc2264"/><path d="M573.3 150.36c13.87-13.85 36.3-13.82 50.17.05 3.94 3.95 6.5 8.08 8.4 13.34l3-1.05c-4.03-11.53-12.2-19.74-23.75-23.76-20.16-7.07-42.2 3.56-49.3 23.75l3 1.04c1.9-5.3 4.45-9.44 8.47-13.38zM623.4 199.97c-13.9 13.84-36.35 13.84-50.18 0-4.02-4-6.65-8.14-8.48-13.46l-3 1.04c2.05 5.8 4.83 10.3 9.14 14.65 15.14 15.1 39.64 15.1 54.78.02 4.4-4.37 7.24-8.93 9.22-14.8l-3-1.02c-1.83 5.37-4.46 9.55-8.5 13.57zM570.8 175.1c0-2.6-.9-4.8-2.72-6.63-3.66-3.64-9.56-3.64-13.23 0-3.64 3.66-3.64 9.57 0 13.23 3.67 3.65 9.57 3.65 13.23 0 1.82-1.83 2.73-4 2.73-6.6zm-5.03 4.34c-2.43 2.3-6.23 2.3-8.66 0-2.38-2.4-2.36-6.28.05-8.67 1.18-1.18 2.62-1.77 4.28-1.77 1.7 0 3.14.6 4.34 1.8 2.4 2.38 2.4 6.25 0 8.64zM642.26 168.6c-3.65-3.62-9.54-3.62-13.2 0-3.62 3.66-3.62 9.55 0 13.2 3.66 3.63 9.55 3.63 13.2 0 3.63-3.65 3.63-9.54 0-13.2zM640 179.54c-2.4 2.38-6.27 2.38-8.65 0-2.4-2.4-2.4-6.24-.02-8.63h.02c2.3-2.47 6.18-2.58 8.64-.28 2.43 2.3 2.54 6.2.23 8.65-.07.1-.17.16-.24.26z" stroke="#fff" stroke-opacity="0" stroke-width="2" fill="#fff"/><path d="M585.25 190.64c6.58-6.54 19.92-6.54 26.5 0 .3.32.67.48 1.12.48.9 0 1.6-.7 1.6-1.6 0-.44-.17-.83-.5-1.15-3.37-3.76-4.97-8.14-4.78-13.2-.2-5.1 1.4-9.5 4.78-13.26.64-.6.64-1.62 0-2.22-.6-.64-1.63-.64-2.23 0-6.58 6.54-19.92 6.54-26.5 0-.6-.64-1.63-.64-2.23 0-.64.6-.64 1.62 0 2.23 3.4 3.78 5.04 8.18 4.85 13.26.2 5.07-1.44 9.48-4.85 13.2-.32.33-.48.72-.48 1.16 0 .45.16.83.48 1.12.6.64 1.63.64 2.23 0zm4.15-24.55c6.1 2.35 12.1 2.35 18.2 0-2.33 6.1-2.33 12.03 0 18.12-6.1-2.36-12.1-2.36-18.2 0 2.33-6.1 2.33-12.03 0-18.13z" stroke="#fff" stroke-opacity="0" stroke-width="2" fill="#fff"/><path d="M617.98 181.7l5.4-5.44c.6-.63.6-1.64 0-2.26l-5.43-5.43-2.28 2.26 2.74 2.72h-7.22v3.2h7.23l-2.7 2.7zM579.3 181.74l5.47-5.45c.6-.64.6-1.64 0-2.27l-5.47-5.46-2.25 2.26 2.73 2.72h-7v3.2h7l-2.73 2.74z" stroke="#fff" stroke-opacity="0" stroke-width="2" fill="#fff"/><use xlink:href="#C" transform="matrix(1,0,0,1,508.5721632185748,244.16603604585902) translate(74.64084201388889 17.7734375)"/><path d="M800.8 114.33c0-3.3 2.7-6 6-6h440c3.32 0 6 2.7 6 6v148c0 3.32-2.68 6-6 6h-440c-3.3 0-6-2.68-6-6z" stroke="#5e5e5e" stroke-width="3" fill="#fff"/><path d="M817.12 131.5c0-3.3 2.68-6 6-6h119.4c3.32 0 6 2.7 6 6v90c0 3.3-2.68 6-6 6h-119.4c-3.32 0-6-2.7-6-6z" stroke="#5e5e5e" stroke-width="3" fill="#b2b2b2"/><use xlink:href="#D" transform="matrix(1,0,0,1,822.1178743268674,130.50063062088526) translate(40.39995659722222 40.7734375)"/><use xlink:href="#E" transform="matrix(1,0,0,1,822.1178743268674,130.50063062088526) translate(34.263888888888886 63.592447916666664)"/><path d="M961.12 131.5c0-3.3 2.68-6 6-6h119.4c3.32 0 6 2.7 6 6v90c0 3.3-2.68 6-6 6h-119.4c-3.32 0-6-2.7-6-6z" stroke="#5e5e5e" stroke-width="3" fill="#b2b2b2"/><use xlink:href="#F" transform="matrix(1,0,0,1,966.1178743268673,130.50063062088526) translate(44.322482638888886 40.7734375)"/><use xlink:href="#E" transform="matrix(1,0,0,1,966.1178743268673,130.50063062088526) translate(34.263888888888886 63.592447916666664)"/><path d="M1105.12 131.5c0-3.3 2.68-6 6-6h119.4c3.32 0 6 2.7 6 6v90c0 3.3-2.68 6-6 6h-119.4c-3.32 0-6-2.7-6-6z" stroke="#5e5e5e" stroke-width="3" fill="#b2b2b2"/><use xlink:href="#G" transform="matrix(1,0,0,1,1110.1178743268674,130.50063062088526) translate(39.824869791666664 40.7734375)"/><use xlink:href="#E" transform="matrix(1,0,0,1,1110.1178743268674,130.50063062088526) translate(34.263888888888886 63.592447916666664)"/><path d="M850.8 748.9c0 14.35-11.15 26-24.92 26-13.77 0-24.94-11.65-24.94-26 0-14.37 11.17-26 24.94-26 13.77 0 24.93 11.63 24.93 26z" stroke="#5e5e5e" stroke-width="3" fill="#ff8f80"/><path d="M855.8 742.03c0 14.36-11.15 26-24.92 26-13.77 0-24.94-11.64-24.94-26s11.17-26 24.94-26c13.77 0 24.93 11.64 24.93 26z" stroke="#5e5e5e" stroke-width="3" fill="#ff8f80"/><path d="M861.8 732.23c0 14.35-11.15 26-24.92 26-13.77 0-24.94-11.65-24.94-26 0-14.36 11.17-26 24.94-26 13.77 0 24.93 11.64 24.93 26z" stroke="#5e5e5e" stroke-width="3" fill="#ff8f80"/><path d="M1324.9 324.97c0-3.32 2.67-6 6-6h228c3.3 0 6 2.68 6 6v48c0 3.3-2.7 6-6 6h-228c-3.33 0-6-2.7-6-6z" stroke="#000" stroke-opacity="0" stroke-width="3" fill="#fff" fill-opacity="0"/><g><use xlink:href="#H" transform="matrix(1,0,0,1,1329.8868203602888,323.9684927044815) translate(54.13953993055559 39.10156249999997)"/><use xlink:href="#I" transform="matrix(1,0,0,1,1329.8868203602888,323.9684927044815) translate(116.37261284722223 39.10156249999997)"/></g><defs><path fill="#5e5e5e" d="M1038-61c0 51-47 95-98 95-39 0-74-22-87-70-30-110-41-211-85-368-87-4-361 32-440 32-32 85-78 214-139 386C127 42 27 50 27-26c0-19 22-92 63-220 65-201 235-650 343-966 11-31 24-76 48-131 35-47 42-54 115-56 27 0 50 13 68 40 56 83 93 247 128 364 76 256 142 483 193 681 35 137 53 221 53 253zM717-597c-42-151-89-306-142-463-23 64-81 226-176 487 71-7 177-15 318-24" id="J"/><path fill="#5e5e5e" d="M555-828c4-155-11-330-11-481 0-60 30-90 89-90 48 0 79 26 94 78 7 24 10 70 10 137 0 363-3 845 29 1153-44 35-82 53-114 53-23 0-40-14-53-42-61 36-127 54-196 54C185 34 15-173 15-393c0-266 251-557 540-435zM215-399c0 121 74 239 189 239 65 0 121-23 166-69-7-86-10-208-10-365-47-42-93-63-138-63-109 0-207 146-207 258" id="K"/><path fill="#5e5e5e" d="M836-686c0 187-30 463 2 630-71 75-129 122-171 10-82 53-167 80-256 80C187 34 46-160 46-393c0-281 308-555 614-431 19-27 45-40 76-40 67 0 100 59 100 178zM249-382c0 105 58 213 157 213 80 0 157-36 232-109 3-73 4-181 4-326 1 1-110-58-139-48-132-6-254 139-254 270" id="L"/><path fill="#5e5e5e" d="M241-811c290-144 563 150 563 427 0 269-245 510-522 386 3 148 1 204-14 321-81 99-190 62-178-113 16-227-25-734-25-971 0-93 132-125 176-50zm191 649c100 0 176-118 176-222 0-126-96-273-217-273-53 0-94 27-123 80 5 119 8 237 8 352 56 42 108 63 156 63" id="M"/><path fill="#5e5e5e" d="M584-872c50 0 94 39 94 90 0 53-31 85-94 98-29 6-81 10-156 10v662c-58 31-101 46-128 46-39 0-59-22-59-65 2-210 3-252 3-645-82 0-147-4-195-12-65-109-48-182 122-181 13-1 61 4 73 4v-364c-1-48 42-89 91-89 47 0 92 41 92 89v359c43-1 96-2 157-2" id="N"/><path fill="#5e5e5e" d="M741-273c50-2 102 44 100 94 0 19-8 40-25 63C764-40 600 34 473 34 251 34 46-175 46-396c0-217 200-459 413-459 160 0 336 211 336 369 0 44-28 73-82 92-62 22-312 32-464 24 15 104 106 205 224 203 39 0 88-18 149-53s100-53 119-53zM572-570c-76-133-187-104-270 20 39-1 129-7 270-20" id="O"/><path fill="#5e5e5e" d="M468-848c193 0 298 180 298 385 0 53-38 94-92 94-48 0-81-25-95-75-20-75-16-213-105-213-95 0-223 127-223 222v425c-45 29-84 44-116 44-42 0-63-31-63-92 0-166-4-210-4-604 0-125 33-188 99-188 53 0 83 27 91 82 68-53 138-80 210-80" id="P"/><path fill="#5e5e5e" d="M531-614c-33 0-117-43-150-43-49 0-84 9-103 26 45 67 311 167 362 220 54 56 87 121 87 208C727-59 571 34 418 34 267 34 142-29 43-154c7-41 48-130 87-128 2 0 37 22 104 66s127 66 179 66c66 0 107-17 123-50-5-45-48-90-128-136-72-41-147-78-217-121-80-49-116-111-116-174 0-130 162-224 297-224 79 0 256 66 256 140 0 50-47 101-97 101" id="Q"/><g id="a"><use transform="matrix(0.010850694444444444,0,0,0.010850694444444444,0,0)" xlink:href="#J"/><use transform="matrix(0.010850694444444444,0,0,0.010850694444444444,11.664496527777777,0)" xlink:href="#K"/><use transform="matrix(0.010850694444444444,0,0,0.010850694444444444,20.65972222222222,0)" xlink:href="#L"/><use transform="matrix(0.010850694444444444,0,0,0.010850694444444444,30.219184027777775,0)" xlink:href="#M"/><use transform="matrix(0.010850694444444444,0,0,0.010850694444444444,39.14930555555555,0)" xlink:href="#N"/><use transform="matrix(0.010850694444444444,0,0,0.010850694444444444,46.62543402777778,0)" xlink:href="#O"/><use transform="matrix(0.010850694444444444,0,0,0.010850694444444444,56.21744791666666,0)" xlink:href="#P"/><use transform="matrix(0.010850694444444444,0,0,0.010850694444444444,64.65928819444443,0)" xlink:href="#Q"/></g><path fill="#5e5e5e" d="M53-1311c-12-48 236-88 295-88 197 0 365 41 505 122 170 98 255 239 255 422 0 338-392 467-770 420-1 250-2 343-2 343 0 84-31 126-92 126-48 0-89-38-89-87 0-112 4-348 5-423-47-19-71-52-71-97 0-51 24-83 71-94 1-236 2-415 2-536l-51 5c-39-43-58-81-58-113zm855 463c0-253-274-365-563-359-5 191-7 382-7 572 37 5 81 7 130 7 293 0 440-73 440-220" id="R"/><path fill="#5e5e5e" d="M425-862c217 0 353 210 353 439 0 240-138 457-368 457C191 34 49-155 49-377c0-243 145-485 376-485zm-9 703c111 0 169-142 169-264 0-111-61-246-162-246-123 0-184 93-184 278 0 155 59 232 177 232" id="S"/><g id="b"><use transform="matrix(0.010850694444444444,0,0,0.010850694444444444,0,0)" xlink:href="#R"/><use transform="matrix(0.010850694444444444,0,0,0.010850694444444444,11.664496527777777,0)" xlink:href="#S"/><use transform="matrix(0.010850694444444444,0,0,0.010850694444444444,20.65972222222222,0)" xlink:href="#P"/><use transform="matrix(0.010850694444444444,0,0,0.010850694444444444,29.1015625,0)" xlink:href="#N"/><use transform="matrix(0.010850694444444444,0,0,0.010850694444444444,36.57769097222222,0)" xlink:href="#Q"/></g><g id="c"><use transform="matrix(0.011935763888888888,0,0,0.011935763888888888,0,0)" xlink:href="#J"/><use transform="matrix(0.011935763888888888,0,0,0.011935763888888888,12.830946180555555,0)" xlink:href="#M"/><use transform="matrix(0.011935763888888888,0,0,0.011935763888888888,22.65407986111111,0)" xlink:href="#M"/></g><path fill="#5e5e5e" d="M681 15C280 117 39-203 39-592c0-190 39-362 116-517 97-193 230-290 401-290 167 0 296 86 389 257 77 141 115 302 115 483 0 255-72 449-215 580 47 105 71 169 71 192 2 48-48 92-97 92-90 0-97-126-138-190zM229-601c-1 267 97 457 367 441-39-79-76-150-113-215 29-69 63-103 102-103 27 0 83 71 168 213 75-100 112-236 112-407 0-227-107-533-307-533-117 0-205 76-264 227-43 111-65 236-65 377" id="T"/><path fill="#5e5e5e" d="M800-724c-3 222-2 446 2 668 1 51-39 90-90 90-53 0-84-27-94-82-63 55-132 82-207 82C174 34 56-189 56-635c0-150 38-225 113-225 56 0 102 41 102 97 0 43-12 196-12 239 0 243 51 364 154 364 106 0 187-142 196-250 5-64-2-333 21-399 87-53 172-58 170 85" id="U"/><g id="d"><use transform="matrix(0.010850694444444444,0,0,0.010850694444444444,0,0)" xlink:href="#T"/><use transform="matrix(0.010850694444444444,0,0,0.010850694444444444,12.03342013888889,0)" xlink:href="#U"/><use transform="matrix(0.010850694444444444,0,0,0.010850694444444444,21.495225694444443,0)" xlink:href="#O"/><use transform="matrix(0.010850694444444444,0,0,0.010850694444444444,31.087239583333332,0)" xlink:href="#U"/><use transform="matrix(0.010850694444444444,0,0,0.010850694444444444,40.549045138888886,0)" xlink:href="#O"/></g><path fill="#5e5e5e" d="M278-811c294-144 579 123 579 418 0 299-339 549-616 366-83 66-173 65-173-86 0-212 12-919 11-1131 0-103 33-155 100-155 66 0 99 51 99 153v435zm171 645c137-23 210-103 210-233 0-131-92-258-217-258-67 0-128 26-183 78v274c52 87 83 131 190 139" id="V"/><path fill="#5e5e5e" d="M534-1399c50 0 99 43 97 93-2 85-72 263-100 350-58 184-143 461-258 828C239-20 194 34 138 34 88 34 39-5 41-56c0-21 31-125 92-313 37-116 110-334 208-657 30-101 51-243 99-316 24-38 55-57 94-57" id="W"/><path fill="#5e5e5e" d="M463-1210c-81-4-187 79-187 162 0 57 51 120 156 186 205 129 497 194 503 500 4 222-181 399-403 396-241-4-420-153-483-346-34-103 123-178 173-82 41 79 71 144 156 186 53 26 103 41 154 41 123 2 206-79 204-202 0-47-23-91-70-129-22-18-67-44-134-79-133-71-230-132-291-184-107-90-161-185-161-285 0-186 188-353 372-353 190 0 353 136 393 293-64 72-115 109-173 27-60-84-96-125-209-131" id="X"/><g id="e"><use transform="matrix(0.010850694444444444,0,0,0.010850694444444444,0,0)" xlink:href="#R"/><use transform="matrix(0.010850694444444444,0,0,0.010850694444444444,12.18532986111111,0)" xlink:href="#U"/><use transform="matrix(0.010850694444444444,0,0,0.010850694444444444,21.647135416666664,0)" xlink:href="#V"/><use transform="matrix(0.010850694444444444,0,0,0.010850694444444444,31.10894097222222,0)" xlink:href="#W"/><use transform="matrix(0.010850694444444444,0,0,0.010850694444444444,38.400607638888886,0)" xlink:href="#X"/><use transform="matrix(0.010850694444444444,0,0,0.010850694444444444,48.990885416666664,0)" xlink:href="#U"/><use transform="matrix(0.010850694444444444,0,0,0.010850694444444444,58.45269097222222,0)" xlink:href="#V"/></g><path fill="#5e5e5e" d="M693-317c70-2 127 82 85 150C718-70 552 31 404 34 201 38 40-151 44-358c4-212 146-388 302-458 115-51 232-54 316 28 45 43 73 95 84 157-37 55-72 83-106 83-41 12-94-120-135-109-108-10-258 167-258 275 0 142 52 213 157 213 43 0 97-25 163-74s108-74 126-74" id="Y"/><path fill="#5e5e5e" d="M529-872c255 0 326 211 326 503 0 146-10 253-32 320-18 56-52 83-99 83-53 0-95-41-94-94 4-187 101-621-111-619-95 0-163 74-220 216-24 59-14 117-17 192-3 89-6 176-14 261-41 29-77 44-108 44-45 0-71-81-71-130 2-345 13-664 1-1005-5-133-25-201-25-206-1-52 39-92 90-92 54 0 94 31 103 97 19 137 4 374 7 532 83-68 171-102 264-102" id="Z"/><g id="f"><use transform="matrix(0.010850694444444444,0,0,0.010850694444444444,0,0)" xlink:href="#X"/><use transform="matrix(0.010850694444444444,0,0,0.010850694444444444,10.590277777777777,0)" xlink:href="#O"/><use transform="matrix(0.010850694444444444,0,0,0.010850694444444444,20.182291666666664,0)" xlink:href="#L"/><use transform="matrix(0.010850694444444444,0,0,0.010850694444444444,30.00217013888889,0)" xlink:href="#P"/><use transform="matrix(0.010850694444444444,0,0,0.010850694444444444,38.444010416666664,0)" xlink:href="#Y"/><use transform="matrix(0.010850694444444444,0,0,0.010850694444444444,47.31987847222221,0)" xlink:href="#Z"/></g><path fill="#5e5e5e" d="M671-870c56 0 110 48 95 114-60 267-147 511-266 730-21 40-51 60-89 60-55 0-100-60-145-176-55-140-136-349-235-631 42-51 79-77 112-77 23 0 45 12 57 41 49 113 132 319 211 504 69-187 119-334 150-443 24-81 61-122 110-122" id="aa"/><path fill="#5e5e5e" d="M166-1145c59 0 114 47 114 107 0 55-45 110-101 110S68-983 68-1038c0-54 42-107 98-107zm102 399c0 47 1 108-5 186-18 245-2 393-31 567C152 48 64 53 63-55c-3-213 9-280 9-561 0-147 36-220 109-220 58 0 87 30 87 90" id="ab"/><g id="g"><use transform="matrix(0.010850694444444444,0,0,0.010850694444444444,0,0)" xlink:href="#X"/><use transform="matrix(0.010850694444444444,0,0,0.010850694444444444,10.590277777777777,0)" xlink:href="#O"/><use transform="matrix(0.010850694444444444,0,0,0.010850694444444444,20.182291666666664,0)" xlink:href="#P"/><use transform="matrix(0.010850694444444444,0,0,0.010850694444444444,28.624131944444443,0)" xlink:href="#aa"/><use transform="matrix(0.010850694444444444,0,0,0.010850694444444444,37.369791666666664,0)" xlink:href="#ab"/><use transform="matrix(0.010850694444444444,0,0,0.010850694444444444,41.11328125,0)" xlink:href="#Y"/><use transform="matrix(0.010850694444444444,0,0,0.010850694444444444,50.17361111111112,0)" xlink:href="#O"/></g><path fill="#5e5e5e" d="M683-811c45-89 204-23 170 70C723-388 475 102 295 379c-62 7-148-23-150-70 0-14 63-137 190-370-52-145-206-460-286-707 72-102 138-124 192 0 58 134 146 340 208 481 110-218 131-319 234-524" id="ac"/><g id="h"><use transform="matrix(0.010850694444444444,0,0,0.010850694444444444,0,0)" xlink:href="#T"/><use transform="matrix(0.010850694444444444,0,0,0.010850694444444444,12.03342013888889,0)" xlink:href="#U"/><use transform="matrix(0.010850694444444444,0,0,0.010850694444444444,21.495225694444443,0)" xlink:href="#O"/><use transform="matrix(0.010850694444444444,0,0,0.010850694444444444,31.087239583333332,0)" xlink:href="#P"/><use transform="matrix(0.010850694444444444,0,0,0.010850694444444444,39.52907986111111,0)" xlink:href="#ac"/></g><g id="i"><use transform="matrix(0.010850694444444444,0,0,0.010850694444444444,0,0)" xlink:href="#R"/><use transform="matrix(0.010850694444444444,0,0,0.010850694444444444,11.555989583333332,0)" xlink:href="#O"/><use transform="matrix(0.010850694444444444,0,0,0.010850694444444444,21.14800347222222,0)" xlink:href="#P"/><use transform="matrix(0.010850694444444444,0,0,0.010850694444444444,29.58984375,0)" xlink:href="#Q"/><use transform="matrix(0.010850694444444444,0,0,0.010850694444444444,37.94487847222222,0)" xlink:href="#ab"/><use transform="matrix(0.010850694444444444,0,0,0.010850694444444444,41.68836805555556,0)" xlink:href="#Q"/><use transform="matrix(0.010850694444444444,0,0,0.010850694444444444,50.04340277777778,0)" xlink:href="#N"/></g><g id="j"><use transform="matrix(0.010850694444444444,0,0,0.010850694444444444,0,0)" xlink:href="#J"/><use transform="matrix(0.010850694444444444,0,0,0.010850694444444444,11.664496527777777,0)" xlink:href="#Y"/><use transform="matrix(0.010850694444444444,0,0,0.010850694444444444,20.724826388888886,0)" xlink:href="#Y"/><use transform="matrix(0.010850694444444444,0,0,0.010850694444444444,29.785156249999993,0)" xlink:href="#O"/><use transform="matrix(0.010850694444444444,0,0,0.010850694444444444,39.377170138888886,0)" xlink:href="#Q"/><use transform="matrix(0.010850694444444444,0,0,0.010850694444444444,47.73220486111111,0)" xlink:href="#Q"/></g><path fill="#5e5e5e" d="M242-567c0 228 105 412 323 412 121 0 200-56 237-168 65-27 164-31 164 55 0 17-9 46-27 85C873-38 748 34 563 34 230 34 46-235 46-579c0-191 46-368 140-532 110-192 254-288 430-288 141 0 249 78 304 240 22 65-30 128-94 126-35 0-69-28-102-85s-70-85-111-85c-115 0-209 81-282 242-59 131-89 262-89 394" id="ad"/><path fill="#5e5e5e" d="M432-858c231 0 331 186 331 435 0 67-21 291-19 358 2 50-44 98-94 97-161-3-83-317-83-459 0-161-47-242-140-242-73 0-130 35-171 106v447c0 100-32 150-97 150C98 34 67-4 67-80c-2-279 3-404 3-720 48-30 87-45 116-45 27 0 46 14 56 41 59-36 123-54 190-54" id="ae"/><path fill="#5e5e5e" d="M510-1399c159 0 270 139 270 296 0 77-33 115-99 115-41 0-71-18-84-55-19-53-15-157-78-157-131 0-184 309-179 481 121 1 312-43 312 88 0 67-61 100-184 100-23 1-104-6-127-5 14 115 30 287 48 517-107 78-196 89-196-99 0-133-29-219-46-413l-68 2c-32-45-48-81-48-109 0-46 37-69 111-69 1-171 20-308 58-409 70-189 173-283 310-283" id="af"/><path fill="#5e5e5e" d="M783-642c0 71 21 306 21 377 0 460-121 690-364 690-136 0-280-109-327-207-34-72 20-145 90-143 27 0 63 24 107 73C435 286 558 226 587 5 297 130 44-148 44-418c0-291 294-545 577-389 67-39 142-43 157 48 3 17 5 56 5 117zM242-423c0 121 98 257 214 257 26 0 76-21 150-63-1-66-9-190-22-372-40-39-84-59-133-59-116 0-209 122-209 237" id="ag"/><g id="k"><use transform="matrix(0.010850694444444444,0,0,0.010850694444444444,0,0)" xlink:href="#ad"/><use transform="matrix(0.010850694444444444,0,0,0.010850694444444444,11.002604166666666,0)" xlink:href="#S"/><use transform="matrix(0.010850694444444444,0,0,0.010850694444444444,19.99782986111111,0)" xlink:href="#ae"/><use transform="matrix(0.010850694444444444,0,0,0.010850694444444444,28.92795138888889,0)" xlink:href="#af"/><use transform="matrix(0.010850694444444444,0,0,0.010850694444444444,37.59765625,0)" xlink:href="#ab"/><use transform="matrix(0.010850694444444444,0,0,0.010850694444444444,41.341145833333336,0)" xlink:href="#ag"/></g><path fill="#5e5e5e" d="M55-1294c-14-53 255-105 315-105 180 0 329 25 446 75 163 70 244 183 244 338S940-702 700-601c50 84 169 271 237 374 55 83 80 139 80 166 0 50-49 95-99 93-102-5-209-244-266-337-31-51-76-127-137-229-67 18-133 27-199 27v394c0 98-33 147-98 147-48 0-88-38-88-87 3-451 6-580 5-1131h5c-57-40-85-77-85-110zm812 302c0-86-64-148-193-186-93-27-223-39-355-34-2 104-3 274-3 511 109-9 219-35 329-79 148-59 222-130 222-212" id="ah"/><g id="l"><use transform="matrix(0.010850694444444444,0,0,0.010850694444444444,0,0)" xlink:href="#ah"/><use transform="matrix(0.010850694444444444,0,0,0.010850694444444444,12.055121527777777,0)" xlink:href="#O"/><use transform="matrix(0.010850694444444444,0,0,0.010850694444444444,21.647135416666664,0)" xlink:href="#L"/><use transform="matrix(0.010850694444444444,0,0,0.010850694444444444,31.46701388888889,0)" xlink:href="#K"/></g><path fill="#5e5e5e" d="M1384-1399c50 0 97 43 97 93 0 85-85 485-254 1202-21 92-58 138-111 138-85 0-129-152-159-261-41-146-109-363-192-655-64 339-132 605-192 802-16 51-74 116-122 116-35 0-63-20-82-60-11-23-28-96-50-220-44-249-136-603-275-1062 67-90 135-134 178-23 110 283 185 606 252 904 81-333 124-549 154-811 9-76 36-163 108-163 70 0 120 70 151 211 48 219 120 480 216 785 34-171 115-553 172-822 12-59 17-97 24-113 17-41 45-61 85-61" id="ai"/><g id="m"><use transform="matrix(0.010850694444444444,0,0,0.010850694444444444,0,0)" xlink:href="#ai"/><use transform="matrix(0.010850694444444444,0,0,0.010850694444444444,16.612413194444443,0)" xlink:href="#P"/><use transform="matrix(0.010850694444444444,0,0,0.010850694444444444,25.05425347222222,0)" xlink:href="#ab"/><use transform="matrix(0.010850694444444444,0,0,0.010850694444444444,28.797743055555554,0)" xlink:href="#N"/><use transform="matrix(0.010850694444444444,0,0,0.010850694444444444,36.27387152777778,0)" xlink:href="#O"/></g><path fill="#333" d="M171-567c0 248 122 446 356 446 138 0 226-58 265-174 35-12 111-21 102 27C861-98 723 0 526 0 214 0 43-251 43-579c0-181 44-349 131-506 103-187 238-280 405-280 109 0 273 126 273 232 0 44-21 66-64 66-42 11-105-129-112-126-26-29-60-44-101-44-126 0-228 84-307 251-65 137-97 277-97 419" id="aj"/><path fill="#333" d="M387-828c200 0 320 195 320 405C707-201 583 0 372 0 173 0 46-173 46-377c0-226 130-451 341-451zm-8 703c130 0 203-155 203-298 0-128-75-280-196-280-146 0-219 104-219 312 0 177 71 266 212 266" id="ak"/><path fill="#333" d="M548-125c0-58 15-243 15-302 0-184-58-276-174-276-89 0-157 44-205 131v456c0 77-21 116-63 116-39 0-58-27-58-80-2-270 3-399 4-702 58-32 117-59 114 38 61-53 132-80 213-80 198 0 297 134 297 401 0 67-21 291-19 358 1 33-26 63-59 63-43 0-65-41-65-123" id="al"/><path fill="#333" d="M471-1365c137 0 236 121 236 262 0 94-108 110-123 28-6-36-13-71-23-104-13-44-58-68-105-50-129 50-191 235-191 546 78-4 155-6 232-6 55 0 82 19 82 58 0 36-104 54-313 54 13 123 29 303 48 541-34 24-63 36-87 36-58 0-43-165-48-203-5-41-41-294-37-362H56C9-638 5-674 137-672c0-186 19-330 56-432 63-174 156-261 278-261" id="am"/><path fill="#333" d="M113-1111c40 0 80 33 80 73 0 37-29 75-67 75-37 0-77-38-77-75 0-49 21-73 64-73zm68 365c0 46 2 107-5 186-18 209 2 366-28 543C100 6 44 17 44-55c0-200 11-280 9-527 0-75 5-130 15-166s29-54 60-54c35 0 53 19 53 56" id="an"/><path fill="#333" d="M710-642c0 71 20 306 20 377 0 437-110 656-329 656-122 0-255-100-297-188-23-49 13-95 60-94 16 0 47 24 92 73s93 74 142 74c105 0 169-103 193-309C529-18 467 0 406 0 207 0 39-215 39-418c0-274 287-511 543-350 49-28 105-58 121 9 5 21 7 60 7 117zM416-131c68-2 132-51 185-77 0-56-8-192-24-408-48-53-103-79-166-79-134 0-242 139-242 272 0 140 113 296 247 292" id="ao"/><g id="n"><use transform="matrix(0.010850694444444444,0,0,0.010850694444444444,0,0)" xlink:href="#aj"/><use transform="matrix(0.010850694444444444,0,0,0.010850694444444444,10.188802083333332,0)" xlink:href="#ak"/><use transform="matrix(0.010850694444444444,0,0,0.010850694444444444,18.370225694444443,0)" xlink:href="#al"/><use transform="matrix(0.010850694444444444,0,0,0.010850694444444444,26.48654513888889,0)" xlink:href="#am"/><use transform="matrix(0.010850694444444444,0,0,0.010850694444444444,34.299045138888886,0)" xlink:href="#an"/><use transform="matrix(0.010850694444444444,0,0,0.010850694444444444,36.783854166666664,0)" xlink:href="#ao"/></g><path fill="#333" d="M415-1244c-121 4-250 10-369-5-27-41-56-86 0-103 32-10 305-13 818-13 83 0 124 22 124 66 0 38-19 57-58 57-84 1-367-1-399-2 7 838 7 690 7 1215-59 32-117 60-116-41 4-416-10-571-7-1174" id="ap"/><path fill="#333" d="M703-239c53-2 92 61 48 102C706-69 548 0 435 0 231 0 43-192 43-396c0-275 343-584 568-334 55 61 113 143 113 244 0 28-21 44-58 59-58 23-357 32-492 21-5 142 119 273 261 273 43 0 96-18 159-53s99-53 109-53zM585-539c-52-159-182-200-297-92-35 33-63 72-85 117 67-1 195-9 382-25" id="aq"/><path fill="#333" d="M582-797c38-49 118-25 118 31 0 19-85 144-255 375 88 125 135 184 227 292 35 40 4 98-42 99-37 0-122-97-256-292C294-185 226-94 169-20 120-1 51 0 55-65c0-13 6-30 20-49 48-66 122-163 220-294-75-108-155-215-240-321 11-55 29-83 53-83 31 0 117 102 259 307 48-61 142-197 215-292" id="ar"/><path fill="#333" d="M236-31c2-220 3-265 3-679-68 0-161 0-207-9-20-44-43-82 2-103 17-8 86-11 205-11v-396c0-36 19-54 56-54 39 0 58 18 58 54v394c77-2 141-3 191-3 40 0 60 19 60 56 0 33-20 54-60 63-20 5-83 7-189 7v681c-41 21-72 31-94 31-17 0-25-10-25-31" id="as"/><g id="o"><use transform="matrix(0.010850694444444444,0,0,0.010850694444444444,0,0)" xlink:href="#ap"/><use transform="matrix(0.010850694444444444,0,0,0.010850694444444444,8.10546875,0)" xlink:href="#aq"/><use transform="matrix(0.010850694444444444,0,0,0.010850694444444444,16.62326388888889,0)" xlink:href="#ar"/><use transform="matrix(0.010850694444444444,0,0,0.010850694444444444,24.85894097222222,0)" xlink:href="#as"/></g><path fill="#333" d="M65-128c-2-220 17-952 15-1172 0-43 204-65 611-65 51 0 88 4 109 10 35 9 53 29 53 58 0 37-18 55-53 55-154-1-470-7-612-9 7 124 10 284 10 481 150 1 312-1 464-3 39 0 58 18 58 54-2 101-163 70-275 70-44 0-127-1-250-1v536c183-8 367-12 553-12 67 0 100 21 100 63 0 40-30 60-90 60-103 0-453 5-557 3C94-2 66-20 65-128" id="at"/><path fill="#333" d="M802-696c140 50 287 161 289 324 4 389-648 445-983 299-10-37-2-105 27-98 23 0 62 9 118 28 5-228 18-440 6-674-10-192-29-332-29-422-41 2-81 5-121 8-42-18-63-38-63-61 0-49 58-73 174-73 191 0 355 27 492 80 191 74 286 191 286 350 0 109-65 189-196 239zM365-126c255 31 592-28 596-243 2-136-240-241-389-257-35-4-87-8-152-26-32-9-46-31-46-56-1-33 24-67 58-67 17 0 75 5 92 5 137 0 348-61 348-179 0-185-302-292-524-283 1 67 2 211 2 432 0 281 38 446 15 674" id="au"/><path fill="#333" d="M423-1244c-130-3-288 151-189 283 45 59 120 123 235 184 144 76 234 127 267 154 84 69 126 156 126 261C862-158 697 3 493 0 263-4 80-145 39-341c-7-33 36-64 69-62 47 3 61 61 85 108 42 83 178 162 300 162 142 0 239-94 237-236 0-39-12-75-36-109s-86-77-185-130c-128-68-220-125-277-172-105-85-157-174-157-266 0-167 173-319 338-319 164 0 322 115 355 251-26 31-50 47-73 47-8 0-24-15-45-46-53-79-112-128-227-131" id="av"/><g id="p"><use transform="matrix(0.010850694444444444,0,0,0.010850694444444444,0,0)" xlink:href="#at"/><use transform="matrix(0.010850694444444444,0,0,0.010850694444444444,9.407552083333332,0)" xlink:href="#au"/><use transform="matrix(0.010850694444444444,0,0,0.010850694444444444,21.690538194444443,0)" xlink:href="#av"/></g><path fill="#333" d="M689-655c-177 0-313 1-513 0v626C147-10 122 0 99 0 81 0 72-10 72-29c1-230-6-996-5-1225 0-46 11-77 34-93 18-12 228-18 629-18 78 0 117 22 117 65 0 82-109 56-180 56-162 0-331 9-491-2v471c219-3 363-5 430-5 90 0 135 24 135 72 0 35-17 53-52 53" id="aw"/><g id="q"><use transform="matrix(0.010850694444444444,0,0,0.010850694444444444,0,0)" xlink:href="#at"/><use transform="matrix(0.010850694444444444,0,0,0.010850694444444444,9.407552083333332,0)" xlink:href="#aw"/><use transform="matrix(0.010850694444444444,0,0,0.010850694444444444,18.59809027777778,0)" xlink:href="#av"/></g><path fill="#333" d="M642-788c141 62 267 197 273 378C922-197 708 5 497 0 361-3 194-93 128-171c-40-48-1-106 49-107 12 0 53 23 122 70s134 71 194 71c157 0 285-113 285-278 0-109-73-193-215-257-30-14-131-43-131-98 0-20 10-40 32-58 81-67 250-159 255-280 3-67-134-133-202-131-110 3-212 84-259 162-56 2-106-11-98-37 41-137 192-247 361-251 155-4 329 113 329 264 0 100-69 204-208 313" id="ax"/><g id="r"><use transform="matrix(0.010850694444444444,0,0,0.010850694444444444,0,0)" xlink:href="#av"/><use transform="matrix(0.010850694444444444,0,0,0.010850694444444444,9.754774305555555,0)" xlink:href="#ax"/></g><path fill="#333" d="M659-27C278 95 34-215 34-592c0-179 36-343 109-493 90-187 215-280 374-280 155 0 276 83 364 249 70 134 105 286 105 457 0 259-74 449-221 572 52 115 78 181 78 200 0 54-86 84-111 27-20-46-39-102-73-167zM155-601c-1 280 106 479 377 476 22 0 47-4 74-13-39-79-80-158-125-239 19-45 40-67 65-67 26 0 80 80 162 239 101-108 152-264 152-467 0-131-25-251-75-359-64-139-153-208-266-208-130 0-227 78-292 235-48 117-72 251-72 403" id="ay"/><path fill="#333" d="M191-1237c0 287 13 826 7 1118 119 4 493-9 539-9 69 0 103 22 103 65 0 37-27 56-81 56-163-2-516 26-633-8-32-9-46-100-46-258 0-188-19-816-17-1004 0-59 21-88 63-88 43 0 65 43 65 128" id="az"/><path fill="#333" d="M370-1365c349 0 611 335 611 693C981-313 691 0 335 0 242 0 44-36 49-109c4-60 73-80 128-48-2-119-3-467-3-1044-34 12-84 10-78-33 49-107 110-131 274-131zM282-137c427 45 695-414 512-814-87-190-242-309-516-293 3 245 4 614 4 1107" id="aA"/><g id="s"><use transform="matrix(0.010850694444444444,0,0,0.010850694444444444,0,0)" xlink:href="#ay"/><use transform="matrix(0.010850694444444444,0,0,0.010850694444444444,11.20876736111111,0)" xlink:href="#az"/><use transform="matrix(0.010850694444444444,0,0,0.010850694444444444,20.323350694444443,0)" xlink:href="#aA"/><use transform="matrix(0.010850694444444444,0,0,0.010850694444444444,31.412760416666664,0)" xlink:href="#au"/></g><path fill="#333" d="M49-1294c0-47 215-71 282-71 169 0 309 23 420 68 157 64 235 168 235 311 0 147-125 269-375 368 50 86 179 292 254 403 55 81 79 133 79 154 1 31-33 61-65 59-82-7-187-236-237-321-33-56-84-139-149-252-90 27-174 41-251 41v421c0 75-21 113-63 113-36 0-54-18-54-53 2-462 6-601 5-1174l-22 7c-39-27-59-52-59-74zm813 302c0-94-68-163-205-208-117-39-263-58-411-42-3 92-4 284-4 576 111-1 234-30 371-87 166-69 249-148 249-239" id="aB"/><g id="t"><use transform="matrix(0.010850694444444444,0,0,0.010850694444444444,0,0)" xlink:href="#aB"/><use transform="matrix(0.010850694444444444,0,0,0.010850694444444444,11.20876736111111,0)" xlink:href="#aA"/><use transform="matrix(0.010850694444444444,0,0,0.010850694444444444,22.298177083333332,0)" xlink:href="#av"/></g><path fill="#333" d="M655-283c43-1 84 52 57 97C658-97 502 0 367 0 182 0 38-170 41-358c3-197 135-364 282-427 102-44 198-51 276 19 40 35 64 78 73 128-25 37-48 56-70 56-7 0-24-18-50-54s-53-55-84-55c-126 0-292 183-292 309 0 138 62 248 191 247 49 0 107-25 174-74s105-74 114-74" id="aC"/><path fill="#333" d="M729-724c-6 220-2 446 1 668 0 37-19 56-56 56-61 0-64-48-63-131C548-44 469 0 374 0 160 0 53-199 53-596c0-94 7-156 19-186s32-44 59-44c46 0 69 21 69 63 0 43-12 196-12 239 0 176 46 398 187 398 124 0 223-155 231-280 4-61-4-317 17-381 59-31 109-44 106 63" id="aD"/><path fill="#333" d="M471-126c0-57 15-247 15-304 0-182-46-273-138-273-69 0-123 41-162 124-1 111-2 267-2 468 0 74-21 111-63 111-39 0-58-27-58-80-2-270 3-399 4-702 33-19 61-29 85-29 21 0 31 18 29 53 113-106 314-82 379 55 57-77 128-116 213-116 175 0 263 134 263 403 0 66-17 290-15 356 0 40-20 60-60 60-43 0-65-40-65-121 0-58 14-248 14-306 0-181-46-271-139-271-76 0-132 46-169 138 29 134-7 349-6 495 0 40-20 60-60 60-43 0-65-40-65-121" id="aE"/><g id="u"><use transform="matrix(0.010850694444444444,0,0,0.010850694444444444,0,0)" xlink:href="#aA"/><use transform="matrix(0.010850694444444444,0,0,0.010850694444444444,11.089409722222221,0)" xlink:href="#ak"/><use transform="matrix(0.010850694444444444,0,0,0.010850694444444444,19.270833333333332,0)" xlink:href="#aC"/><use transform="matrix(0.010850694444444444,0,0,0.010850694444444444,27.506510416666664,0)" xlink:href="#aD"/><use transform="matrix(0.010850694444444444,0,0,0.010850694444444444,36.1328125,0)" xlink:href="#aE"/><use transform="matrix(0.010850694444444444,0,0,0.010850694444444444,48.02517361111111,0)" xlink:href="#aq"/><use transform="matrix(0.010850694444444444,0,0,0.010850694444444444,56.78168402777778,0)" xlink:href="#al"/><use transform="matrix(0.010850694444444444,0,0,0.010850694444444444,64.89800347222223,0)" xlink:href="#as"/><use transform="matrix(0.010850694444444444,0,0,0.010850694444444444,71.52777777777779,0)" xlink:href="#aA"/><use transform="matrix(0.010850694444444444,0,0,0.010850694444444444,82.6171875,0)" xlink:href="#au"/></g><path fill="#333" d="M782-761C654-423 407 79 236 345c-58 1-101-10-98-36 0-3 64-126 193-369-48-118-120-295-222-529-16-38-40-95-65-172 25-37 49-56 72-56 8 0 15 4 22 13 15 21 39 78 79 169 42 96 106 239 189 430 117-227 161-366 263-585 27-58 114-20 113 29" id="aF"/><path fill="#333" d="M765-686c0 180-28 458 0 619-59 63-107 90-115-35C564-34 472 0 374 0 170 0 43-179 43-393c0-271 311-530 595-387 8-33 28-49 60-49 45 0 67 48 67 143zM177-382c0 126 71 247 192 247 93 0 182-43 266-130-3-104 5-290 7-365-30-3-125-56-176-56-152 0-289 154-289 304" id="aG"/><g id="v"><use transform="matrix(0.010850694444444444,0,0,0.010850694444444444,0,0)" xlink:href="#aA"/><use transform="matrix(0.010850694444444444,0,0,0.010850694444444444,11.089409722222221,0)" xlink:href="#aF"/><use transform="matrix(0.010850694444444444,0,0,0.010850694444444444,19.70486111111111,0)" xlink:href="#al"/><use transform="matrix(0.010850694444444444,0,0,0.010850694444444444,27.82118055555556,0)" xlink:href="#aG"/><use transform="matrix(0.010850694444444444,0,0,0.010850694444444444,36.80555555555556,0)" xlink:href="#aE"/><use transform="matrix(0.010850694444444444,0,0,0.010850694444444444,48.69791666666667,0)" xlink:href="#ak"/><use transform="matrix(0.010850694444444444,0,0,0.010850694444444444,56.879340277777786,0)" xlink:href="#aA"/><use transform="matrix(0.010850694444444444,0,0,0.010850694444444444,67.96875,0)" xlink:href="#au"/></g><path fill="#333" d="M492-649c-25 0-121-48-151-42-78 0-126 20-145 61 27 40 84 80 168 121 101 49 166 86 196 110 63 51 94 116 94 196C654-80 511 0 379 0 238 0 124-54 39-162c11-57 28-85 51-85-7 0 24 21 94 65s133 66 190 66c85 0 138-26 157-79-3-57-43-111-123-158-72-42-147-78-220-120-80-46-118-101-118-158 0-110 147-190 263-190 70 0 222 45 222 106 0 33-31 66-63 66" id="aH"/><path fill="#333" d="M430-814c173 0 269 166 265 351 0 40-19 60-58 60-81-1-73-142-96-213-16-51-53-75-104-75-114 0-258 142-258 256v406C126-2 69 33 68-58c-2-166-3-209-3-599 1-76 2-155 65-159 53-3 64 61 56 125 75-82 157-123 244-123" id="aI"/><g id="w"><use transform="matrix(0.010850694444444444,0,0,0.010850694444444444,0,0)" xlink:href="#ap"/><use transform="matrix(0.010850694444444444,0,0,0.010850694444444444,8.995225694444445,0)" xlink:href="#an"/><use transform="matrix(0.010850694444444444,0,0,0.010850694444444444,11.480034722222221,0)" xlink:href="#aE"/><use transform="matrix(0.010850694444444444,0,0,0.010850694444444444,23.372395833333332,0)" xlink:href="#aq"/><use transform="matrix(0.010850694444444444,0,0,0.010850694444444444,32.12890625,0)" xlink:href="#aH"/><use transform="matrix(0.010850694444444444,0,0,0.010850694444444444,39.6484375,0)" xlink:href="#as"/><use transform="matrix(0.010850694444444444,0,0,0.010850694444444444,46.27821180555556,0)" xlink:href="#aI"/><use transform="matrix(0.010850694444444444,0,0,0.010850694444444444,53.90625,0)" xlink:href="#aq"/><use transform="matrix(0.010850694444444444,0,0,0.010850694444444444,62.662760416666664,0)" xlink:href="#aG"/><use transform="matrix(0.010850694444444444,0,0,0.010850694444444444,71.64713541666666,0)" xlink:href="#aE"/></g><path fill="#333" d="M176-1229c0 331 45 883 5 1198C117 12 64 26 68-94c9-254-17-925-15-1193 0-52 19-78 58-78 43 0 65 45 65 136" id="aJ"/><path fill="#333" d="M492-838c232 0 291 198 291 469 0 141-10 244-30 309-13 40-35 60-67 60-40 0-60-20-60-60 0-71 28-306 28-377 0-184-58-276-173-276-139 0-241 167-271 298 0 171-4 299-12 386C134 13 83 23 85-96c5-344 15-665 2-1007-5-137-26-214-26-233s19-29 57-29c32 0 56 19 65 58 18 75 6 286 10 394 4 111 11 188 12 229 76-103 172-154 287-154" id="aK"/><g id="x"><use transform="matrix(0.010850694444444444,0,0,0.010850694444444444,0,0)" xlink:href="#at"/><use transform="matrix(0.010850694444444444,0,0,0.010850694444444444,9.407552083333332,0)" xlink:href="#aJ"/><use transform="matrix(0.010850694444444444,0,0,0.010850694444444444,12.08767361111111,0)" xlink:href="#aG"/><use transform="matrix(0.010850694444444444,0,0,0.010850694444444444,21.07204861111111,0)" xlink:href="#aH"/><use transform="matrix(0.010850694444444444,0,0,0.010850694444444444,28.59157986111111,0)" xlink:href="#as"/><use transform="matrix(0.010850694444444444,0,0,0.010850694444444444,35.221354166666664,0)" xlink:href="#an"/><use transform="matrix(0.010850694444444444,0,0,0.010850694444444444,37.70616319444444,0)" xlink:href="#aj"/><use transform="matrix(0.010850694444444444,0,0,0.010850694444444444,47.89496527777778,0)" xlink:href="#aG"/><use transform="matrix(0.010850694444444444,0,0,0.010850694444444444,56.87934027777778,0)" xlink:href="#aC"/><use transform="matrix(0.010850694444444444,0,0,0.010850694444444444,65.1150173611111,0)" xlink:href="#aK"/><use transform="matrix(0.010850694444444444,0,0,0.010850694444444444,73.78472222222221,0)" xlink:href="#aq"/></g><g id="y"><use transform="matrix(0.010850694444444444,0,0,0.010850694444444444,0,0)" xlink:href="#ad"/><use transform="matrix(0.010850694444444444,0,0,0.010850694444444444,11.002604166666666,0)" xlink:href="#L"/><use transform="matrix(0.010850694444444444,0,0,0.010850694444444444,20.822482638888886,0)" xlink:href="#Y"/><use transform="matrix(0.010850694444444444,0,0,0.010850694444444444,29.69835069444444,0)" xlink:href="#Z"/><use transform="matrix(0.010850694444444444,0,0,0.010850694444444444,39.20355902777777,0)" xlink:href="#O"/></g><g id="z"><use transform="matrix(0.010850694444444444,0,0,0.010850694444444444,0,0)" xlink:href="#at"/><use transform="matrix(0.010850694444444444,0,0,0.010850694444444444,9.407552083333332,0)" xlink:href="#aJ"/><use transform="matrix(0.010850694444444444,0,0,0.010850694444444444,12.08767361111111,0)" xlink:href="#aG"/><use transform="matrix(0.010850694444444444,0,0,0.010850694444444444,21.07204861111111,0)" xlink:href="#aH"/><use transform="matrix(0.010850694444444444,0,0,0.010850694444444444,28.59157986111111,0)" xlink:href="#as"/><use transform="matrix(0.010850694444444444,0,0,0.010850694444444444,35.221354166666664,0)" xlink:href="#an"/><use transform="matrix(0.010850694444444444,0,0,0.010850694444444444,37.70616319444444,0)" xlink:href="#aC"/><use transform="matrix(0.010850694444444444,0,0,0.010850694444444444,45.94184027777778,0)" xlink:href="#aH"/><use transform="matrix(0.010850694444444444,0,0,0.010850694444444444,53.46137152777778,0)" xlink:href="#aq"/><use transform="matrix(0.010850694444444444,0,0,0.010850694444444444,62.21788194444444,0)" xlink:href="#aG"/><use transform="matrix(0.010850694444444444,0,0,0.010850694444444444,71.20225694444444,0)" xlink:href="#aI"/><use transform="matrix(0.010850694444444444,0,0,0.010850694444444444,78.83029513888889,0)" xlink:href="#aC"/><use transform="matrix(0.010850694444444444,0,0,0.010850694444444444,87.06597222222221,0)" xlink:href="#aK"/></g><path fill="#333" d="M79-1355c67 0 222-10 293-10 37 0 55 16 55 49s-21 55-63 65c-14 3-48 6-103 9 14 285 12 690 14 1123 53 1 86 2 99 5 35 9 53 29 53 61 0 35-88 53-263 53-29 0-53-1-74-3-46-72-52-116 79-113-9-188-5-826-17-1123-34-1-68-5-101-12-19-43-36-104 28-104" id="aL"/><path fill="#333" d="M756-439c-104-7-387 36-490 33-33 87-80 219-141 394C95 1 27 13 24-26c24-155 316-923 404-1175 11-31 37-139 81-159 8-3 24-5 49-5 16 0 29 8 39 25 55 83 91 240 125 355 35 118 243 835 244 924 1 32-31 62-63 61-23 0-43-13-51-41-37-129-36-182-96-398zm-32-124c-55-196-117-397-186-603-56 161-131 371-226 630 62-1 333-30 412-27" id="aM"/><path fill="#333" d="M135-1357c26-2 66 24 54 55 76 178 299 744 437 1089 113-328 232-650 340-982 29-87 49-136 60-146 57-53 114-15 114 90V-29c-40 25-91 53-108-1-16-201-8-717-13-958-56 164-185 507-282 826-22 73-53 150-119 150-19 0-38-14-57-43-11-18-37-84-81-198-64-166-163-416-292-749-3 340 19 663-5 973C138 1 74 29 77-55c8-231-15-894-12-1138 0-85 5-160 70-164" id="aN"/><g id="A"><use transform="matrix(0.010850694444444444,0,0,0.010850694444444444,0,0)" xlink:href="#aL"/><use transform="matrix(0.010850694444444444,0,0,0.010850694444444444,5.002170138888888,0)" xlink:href="#aM"/><use transform="matrix(0.010850694444444444,0,0,0.010850694444444444,15.852864583333332,0)" xlink:href="#aN"/></g><path fill="#333" d="M811-1326c-1-19 50-39 73-39 14 0 24 10 29 29 14 47 21 150 21 310v970c11 53-100 77-134 29-36-51-74-140-105-205-163-340-334-646-509-917 1 73 2 384 2 931 0 21 6 88 5 109 0 73-21 109-63 109-38 0-57-265-57-794 0-83-8-352-8-435 0-73 9-113 24-124 8-6 80-11 87 6 61 58 134 157 215 297 101 174 313 571 428 803 2-358 2-721-8-1079" id="aO"/><g id="B"><use transform="matrix(0.010850694444444444,0,0,0.010850694444444444,0,0)" xlink:href="#av"/><use transform="matrix(0.010850694444444444,0,0,0.010850694444444444,9.754774305555555,0)" xlink:href="#aO"/><use transform="matrix(0.010850694444444444,0,0,0.010850694444444444,20.60546875,0)" xlink:href="#av"/></g><g id="C"><use transform="matrix(0.010850694444444444,0,0,0.010850694444444444,0,0)" xlink:href="#av"/><use transform="matrix(0.010850694444444444,0,0,0.010850694444444444,9.754774305555555,0)" xlink:href="#ay"/><use transform="matrix(0.010850694444444444,0,0,0.010850694444444444,20.963541666666664,0)" xlink:href="#av"/></g><g id="D"><use transform="matrix(0.010850694444444444,0,0,0.010850694444444444,0,0)" xlink:href="#aB"/><use transform="matrix(0.010850694444444444,0,0,0.010850694444444444,11.20876736111111,0)" xlink:href="#at"/><use transform="matrix(0.010850694444444444,0,0,0.010850694444444444,20.616319444444443,0)" xlink:href="#av"/><use transform="matrix(0.010850694444444444,0,0,0.010850694444444444,30.37109375,0)" xlink:href="#ap"/></g><path fill="#333" d="M691-782c3 123-209 645-264 739-33 56-84 55-119 2-36-56-66-159-95-232C154-421 67-614 26-765c39-41 78-79 100-29 86 194 136 321 244 584 40-103 96-259 166-469 10-29 33-157 92-157 42 0 63 18 63 54" id="aP"/><g id="E"><use transform="matrix(0.010850694444444444,0,0,0.010850694444444444,0,0)" xlink:href="#av"/><use transform="matrix(0.010850694444444444,0,0,0.010850694444444444,9.754774305555555,0)" xlink:href="#aq"/><use transform="matrix(0.010850694444444444,0,0,0.010850694444444444,18.51128472222222,0)" xlink:href="#aI"/><use transform="matrix(0.010850694444444444,0,0,0.010850694444444444,26.139322916666664,0)" xlink:href="#aP"/><use transform="matrix(0.010850694444444444,0,0,0.010850694444444444,33.99522569444444,0)" xlink:href="#an"/><use transform="matrix(0.010850694444444444,0,0,0.010850694444444444,36.48003472222222,0)" xlink:href="#aC"/><use transform="matrix(0.010850694444444444,0,0,0.010850694444444444,44.71571180555556,0)" xlink:href="#aq"/></g><path fill="#333" d="M1357-1365c30-1 64 29 63 59 21-105-159 796-241 1134-7 28-10 69-30 119-28 69-82 70-120 12-13-19-33-85-66-196-72-245-182-578-229-818-63 359-133 666-208 924-6 19-11 48-29 80-34 59-90 77-124 13-27-51-34-142-47-213-47-256-137-606-271-1049 27-39 52-59 73-59 8 0 15 6 22 18 11 20 27 60 46 119 93 285 176 601 249 947 94-382 156-647 188-952 8-78 44-179 120-121 32 24 55 82 73 167 48 224 133 529 256 915 69-331 130-620 200-954 7-32 19-154 75-145" id="aQ"/><path fill="#333" d="M403-816c216 0 380 206 380 423C783-187 611 0 404 0c-85 0-161-30-227-89l-3 40C113-5 63 4 63-113c0-212 11-919 10-1131 0-81 22-121 67-121 43 0 65 40 65 119v498c49-45 115-68 198-68zm7 685c159-24 244-117 244-268 0-149-108-292-251-292-82 0-154 33-217 99v298c-2 4 0 10 7 19 60 87 98 137 217 144" id="aR"/><g id="F"><use transform="matrix(0.010850694444444444,0,0,0.010850694444444444,0,0)" xlink:href="#aQ"/><use transform="matrix(0.010850694444444444,0,0,0.010850694444444444,15.983072916666666,0)" xlink:href="#aq"/><use transform="matrix(0.010850694444444444,0,0,0.010850694444444444,24.739583333333332,0)" xlink:href="#aR"/></g><path fill="#333" d="M521 0C214 0 48-269 48-592c0-181 36-346 107-493 90-187 215-280 376-280 155 0 276 83 363 249 71 134 106 286 106 457C1000-328 829 0 521 0zm25-123c210 0 329-301 324-532-6-281-93-552-326-586-283 24-374 316-378 639-4 282 116 479 380 479" id="aS"/><path fill="#333" d="M84-573c0-36 33-71 71-60 1-135 2-338 2-608-24 3-48 5-72 7-91-120-12-131 224-131 187 0 348 36 481 112 163 92 244 226 244 398 0 140-68 241-201 312-140 75-366 99-568 69v382c-1 61-21 92-60 92-37 0-55-18-55-53-2-124 4-359 5-449-47-10-71-34-71-71zm819-275c0-146-73-253-220-321-109-51-247-77-412-77-4 181-6 394-6 640 149 24 352 10 462-32 116-44 176-112 176-210" id="aT"/><g id="G"><use transform="matrix(0.010850694444444444,0,0,0.010850694444444444,0,0)" xlink:href="#av"/><use transform="matrix(0.010850694444444444,0,0,0.010850694444444444,9.754774305555555,0)" xlink:href="#aS"/><use transform="matrix(0.010850694444444444,0,0,0.010850694444444444,20.149739583333332,0)" xlink:href="#aM"/><use transform="matrix(0.010850694444444444,0,0,0.010850694444444444,31.000434027777775,0)" xlink:href="#aT"/></g><g id="H"><use transform="matrix(0.023871527777777762,0,0,0.023871527777777762,0,0)" xlink:href="#at"/><use transform="matrix(0.023871527777777762,0,0,0.023871527777777762,20.69661458333332,0)" xlink:href="#aJ"/><use transform="matrix(0.023871527777777762,0,0,0.023871527777777762,26.59288194444443,0)" xlink:href="#aJ"/><use transform="matrix(0.023871527777777762,0,0,0.023871527777777762,32.489149305555536,0)" xlink:href="#aG"/></g><path fill="#333" d="M355-812c205 0 375 221 375 428C730-184 587 0 393 0c-62 0-124-18-185-53 3 108 5 268-12 360-62 71-119 36-111-97C99-17 57-524 60-761c0-39 19-58 58-58 42 0 64 20 65 61 47-36 104-54 172-54zm38 684c118 0 209-133 209-256 0-147-109-307-250-307-73 0-126 33-157 99 4 97 6 225 6 384 67 53 131 80 192 80" id="aU"/><g id="I"><use transform="matrix(0.023871527777777762,0,0,0.023871527777777762,0,0)" xlink:href="#aM"/><use transform="matrix(0.023871527777777762,0,0,0.023871527777777762,23.87152777777776,0)" xlink:href="#aU"/><use transform="matrix(0.023871527777777762,0,0,0.023871527777777762,41.67968749999997,0)" xlink:href="#aU"/></g></defs></g></svg>